<svg width="365" height="401" viewBox="0 0 365 401" fill="none" xmlns="http://www.w3.org/2000/svg">
<path fill-rule="evenodd" clip-rule="evenodd" d="M102.854 5.54079C101.542 2.36107 98.522 0.145508 95.0823 0.145508L24.4628 0.145508C11.2079 0.145508 0.462769 10.8907 0.462769 24.1455L0.462769 376.146C0.462769 389.4 11.2079 400.146 24.4628 400.146L340.463 400.146C353.718 400.146 364.463 389.4 364.463 376.146L364.463 24.1455C364.463 10.8907 353.718 0.145508 340.463 0.145508L267.843 0.145508C264.404 0.145508 261.383 2.36107 260.072 5.54079C247.334 36.4156 216.936 58.1455 181.463 58.1455C145.99 58.1455 115.592 36.4156 102.854 5.54079Z" fill="white"/>
<path fill-rule="evenodd" clip-rule="evenodd" d="M97.4456 13.0724C96.0465 10.1335 93.1448 8.14551 89.8899 8.14551H28.4628C17.4171 8.14551 8.46277 17.0998 8.46277 28.1455L8.46277 372.146C8.46277 383.191 17.4171 392.146 28.4628 392.146L336.463 392.146C347.508 392.146 356.463 383.191 356.463 372.146V28.1455C356.463 17.0998 347.508 8.14551 336.463 8.14551H273.036C269.781 8.14551 266.879 10.1335 265.48 13.0724C250.54 44.4548 218.534 66.1455 181.463 66.1455C144.391 66.1455 112.386 44.4548 97.4456 13.0724Z" fill="white"/>
<path d="M28.4628 392.146L28.4628 392.646L28.4628 392.146ZM336.463 392.146V391.646V392.146ZM265.48 13.0724L265.931 13.2874L265.48 13.0724ZM97.4456 13.0724L97.8971 12.8575L97.4456 13.0724ZM28.4628 8.64551H89.8899V7.64551H28.4628V8.64551ZM8.96277 28.1455C8.96277 17.3759 17.6932 8.64551 28.4628 8.64551V7.64551C17.1409 7.64551 7.96277 16.8237 7.96277 28.1455H8.96277ZM8.96277 372.146L8.96277 28.1455H7.96277L7.96277 372.146H8.96277ZM28.4628 391.646C17.6932 391.646 8.96277 382.915 8.96277 372.146H7.96277C7.96277 383.467 17.1409 392.646 28.4628 392.646V391.646ZM336.463 391.646L28.4628 391.646L28.4628 392.646L336.463 392.646V391.646ZM355.963 372.146C355.963 382.915 347.232 391.646 336.463 391.646V392.646C347.785 392.646 356.963 383.467 356.963 372.146H355.963ZM355.963 28.1455V372.146H356.963V28.1455H355.963ZM336.463 8.64551C347.232 8.64551 355.963 17.376 355.963 28.1455H356.963C356.963 16.8237 347.785 7.64551 336.463 7.64551V8.64551ZM273.036 8.64551H336.463V7.64551H273.036V8.64551ZM265.028 12.8575C250.168 44.0723 218.334 65.6455 181.463 65.6455V66.6455C218.734 66.6455 250.911 44.8373 265.931 13.2874L265.028 12.8575ZM181.463 65.6455C144.591 65.6455 112.758 44.0723 97.8971 12.8575L96.9942 13.2873C112.014 44.8373 144.191 66.6455 181.463 66.6455V65.6455ZM273.036 7.64551C269.572 7.64551 266.503 9.75965 265.028 12.8575L265.931 13.2874C267.255 10.5074 269.99 8.64551 273.036 8.64551V7.64551ZM89.8899 8.64551C92.9357 8.64551 95.6707 10.5074 96.9942 13.2873L97.8971 12.8575C96.4223 9.75965 93.354 7.64551 89.8899 7.64551V8.64551Z" fill="#CFD4E0"/>
</svg>
