<svg width="24" height="24" viewBox="0 0 24 24" fill="none" xmlns="http://www.w3.org/2000/svg">
<g clip-path="url(#clip0)">
<path d="M22.6738 0.00195312H1.3246C0.593539 0.00195312 0 0.594307 0 1.32655V22.6758C0 23.408 0.593539 24.0012 1.3246 24.0012H12.8184V14.7073H9.69105V11.0848H12.8184V8.41345C12.8184 5.31417 14.7108 3.62562 17.4762 3.62562C18.802 3.62562 19.9389 3.72481 20.2704 3.76788V7.00745L18.3523 7.00824C16.8487 7.00824 16.5586 7.7231 16.5586 8.77147V11.0836H20.1459L19.6769 14.7057H16.5582V24H22.6734C23.4053 24 23.9992 23.406 23.9992 22.6758V1.32576C23.9988 0.594307 23.4057 0.00195312 22.6738 0.00195312Z" fill="#ECEDF5"/>
</g>
<defs>
<clipPath id="clip0">
<rect width="24" height="23.9996" fill="white"/>
</clipPath>
</defs>
</svg>
