<svg width="24" height="24" viewBox="0 0 24 24" fill="none" xmlns="http://www.w3.org/2000/svg">
<g clip-path="url(#clip0)">
<path d="M23.9764 7.05607C23.9202 5.78085 23.714 4.90416 23.4186 4.14449C23.1138 3.33812 22.645 2.61617 22.0307 2.01602C21.4306 1.40652 20.7039 0.932921 19.9068 0.632936C19.1428 0.337529 18.2707 0.131312 16.9954 0.0750879C15.7107 0.0141019 15.3029 0 12.0444 0C8.78597 0 8.37811 0.0141019 7.09814 0.0703262C5.82293 0.126551 4.94623 0.332951 4.18675 0.628174C3.38019 0.932922 2.65825 1.40176 2.0581 2.01602C1.44861 2.61617 0.975187 3.34288 0.675019 4.13991C0.379613 4.90416 0.173396 5.77609 0.117172 7.0513C0.0561856 8.33604 0.0420837 8.7439 0.0420837 12.0023C0.0420837 15.2608 0.0561856 15.6686 0.11241 16.9486C0.168634 18.2238 0.375034 19.1005 0.67044 19.8602C0.975187 20.6666 1.44861 21.3885 2.0581 21.9887C2.65825 22.5982 3.38496 23.0718 4.18199 23.3718C4.94623 23.6672 5.81817 23.8734 7.09356 23.9296C8.37335 23.986 8.78139 23.9999 12.0398 23.9999C15.2983 23.9999 15.7061 23.986 16.9861 23.9296C18.2613 23.8734 19.138 23.6672 19.8975 23.3718C21.5104 22.7482 22.7856 21.4729 23.4092 19.8602C23.7045 19.096 23.9109 18.2238 23.9671 16.9486C24.0233 15.6686 24.0374 15.2608 24.0374 12.0023C24.0374 8.7439 24.0326 8.33604 23.9764 7.05607ZM21.8152 16.8549C21.7635 18.027 21.5666 18.6599 21.4026 19.0819C20.9993 20.1274 20.1695 20.9572 19.1239 21.3605C18.702 21.5246 18.0644 21.7215 16.8969 21.7729C15.631 21.8293 15.2514 21.8433 12.0492 21.8433C8.84695 21.8433 8.46254 21.8293 7.20125 21.7729C6.02915 21.7215 5.39621 21.5246 4.97425 21.3605C4.45395 21.1682 3.98035 20.8634 3.59593 20.4649C3.19742 20.0758 2.89267 19.6069 2.70038 19.0866C2.53628 18.6647 2.3394 18.027 2.28794 16.8596C2.23153 15.5937 2.21762 15.2139 2.21762 12.0117C2.21762 8.80946 2.23153 8.42505 2.28794 7.16394C2.3394 5.99183 2.53628 5.3589 2.70038 4.93694C2.89267 4.41645 3.19742 3.94303 3.6007 3.55843C3.98969 3.15992 4.45853 2.85517 4.97902 2.66306C5.40097 2.49896 6.03867 2.30209 7.20601 2.25044C8.47188 2.19422 8.85172 2.18011 12.0538 2.18011C15.2607 2.18011 15.6404 2.19422 16.9017 2.25044C18.0738 2.30209 18.7067 2.49896 19.1287 2.66306C19.649 2.85517 20.1226 3.15992 20.507 3.55843C20.9055 3.94761 21.2103 4.41645 21.4026 4.93694C21.5666 5.3589 21.7635 5.99641 21.8152 7.16394C21.8714 8.42981 21.8855 8.80946 21.8855 12.0117C21.8855 15.2139 21.8714 15.589 21.8152 16.8549Z" fill="#ECEDF5"/>
<path d="M12.0445 5.83789C8.64086 5.83789 5.87927 8.5993 5.87927 12.0032C5.87927 15.407 8.64086 18.1684 12.0445 18.1684C15.4484 18.1684 18.2098 15.407 18.2098 12.0032C18.2098 8.5993 15.4484 5.83789 12.0445 5.83789ZM12.0445 16.0024C9.8364 16.0024 8.04528 14.2115 8.04528 12.0032C8.04528 9.79484 9.8364 8.0039 12.0445 8.0039C14.2529 8.0039 16.0438 9.79484 16.0438 12.0032C16.0438 14.2115 14.2529 16.0024 12.0445 16.0024Z" fill="#ECEDF5"/>
<path d="M19.893 5.59361C19.893 6.38844 19.2485 7.03292 18.4535 7.03292C17.6587 7.03292 17.0142 6.38844 17.0142 5.59361C17.0142 4.79859 17.6587 4.1543 18.4535 4.1543C19.2485 4.1543 19.893 4.79859 19.893 5.59361Z" fill="#ECEDF5"/>
</g>
<defs>
<clipPath id="clip0">
<rect width="24" height="24" fill="white"/>
</clipPath>
</defs>
</svg>
