<svg width="24" height="24" viewBox="0 0 24 24" fill="none" xmlns="http://www.w3.org/2000/svg">
<path d="M23.5295 17.5523C20.3209 17.0243 18.8748 13.7376 18.8163 13.5981C18.8118 13.5891 18.8088 13.5801 18.8028 13.5711C18.6393 13.2381 18.6003 12.9636 18.6903 12.7551C18.8658 12.344 19.5378 12.131 19.9819 11.99C20.1109 11.9495 20.2324 11.9105 20.3329 11.8715C20.7709 11.699 21.0829 11.5115 21.2899 11.3C21.5359 11.0465 21.5839 10.8035 21.5809 10.646C21.5734 10.2619 21.2794 9.91993 20.8099 9.75342C20.6524 9.68892 20.4709 9.65442 20.2879 9.65442C20.1634 9.65442 19.9774 9.67092 19.8018 9.75342C19.4268 9.92893 19.0908 10.0249 18.8013 10.0384C18.6483 10.0309 18.5403 9.99793 18.4698 9.96643C18.4788 9.81642 18.4878 9.66192 18.4983 9.50291L18.5028 9.43391C18.6063 7.80933 18.7338 5.78874 18.1968 4.58868C17.8293 3.76664 17.3357 3.06011 16.7282 2.48708C16.2197 2.00706 15.6287 1.61704 14.9716 1.32903C13.8301 0.825004 12.765 0.75 12.231 0.75H12.2295C12.2085 0.75 12.189 0.75 12.171 0.75C12.0225 0.7515 11.781 0.7545 11.7585 0.7545C11.226 0.7545 10.1594 0.829504 9.01485 1.33353C8.35932 1.62154 7.77129 2.01006 7.26427 2.49008C6.65974 3.06311 6.16772 3.76814 5.8017 4.58718C5.26468 5.78574 5.39219 7.80633 5.49419 9.42941V9.43241C5.50469 9.60641 5.51669 9.78792 5.52719 9.96493C5.44919 9.99943 5.32168 10.0384 5.13417 10.0384C4.83116 10.0384 4.47114 9.94243 4.06463 9.75192C3.94462 9.69642 3.80811 9.66792 3.65811 9.66792C3.4166 9.66792 3.16008 9.73842 2.93957 9.86893C2.66056 10.0324 2.48055 10.2619 2.43105 10.5185C2.39955 10.6865 2.40105 11.021 2.77307 11.36C2.97858 11.546 3.27859 11.7185 3.66711 11.8715C3.76911 11.912 3.89062 11.9495 4.01812 11.99C4.46214 12.131 5.13567 12.344 5.31118 12.7551C5.39969 12.9636 5.36068 13.2381 5.19718 13.5711C5.19268 13.5801 5.18818 13.5891 5.18518 13.5981C5.14317 13.6941 4.76066 14.5566 3.97612 15.4672C3.5306 15.9847 3.04008 16.4182 2.51805 16.7542C1.88053 17.1653 1.19199 17.4323 0.470461 17.5508C0.186948 17.5973 -0.0155608 17.8493 0.000939918 18.1358C0.00544012 18.2183 0.024941 18.3008 0.0594426 18.3803V18.3818C0.174948 18.6503 0.44046 18.8768 0.87248 19.0764C1.4005 19.3209 2.18954 19.5264 3.22009 19.6869C3.27259 19.7859 3.32659 20.0334 3.36409 20.2029C3.4031 20.3829 3.4436 20.5689 3.5021 20.7654C3.5651 20.9784 3.72711 21.2335 4.14563 21.2335C4.30464 21.2335 4.48614 21.1975 4.69765 21.157C5.00667 21.097 5.42969 21.0144 5.95621 21.0144C6.24872 21.0144 6.55174 21.0399 6.85625 21.091C7.44428 21.1885 7.9513 21.5455 8.53783 21.9595C9.39587 22.5655 10.3679 23.2511 11.853 23.2511C11.8935 23.2511 11.934 23.2496 11.9745 23.2466C12.0225 23.2496 12.084 23.2511 12.147 23.2511C13.6321 23.2511 14.6041 22.5655 15.4621 21.961L15.4636 21.9595C16.0502 21.547 16.5572 21.19 17.1452 21.0925C17.4497 21.0415 17.7528 21.0159 18.0453 21.0159C18.5493 21.0159 18.9483 21.0805 19.3038 21.1495C19.5363 21.1945 19.7163 21.217 19.8558 21.217H19.8693H19.8828C20.1889 21.217 20.4139 21.049 20.4994 20.7564C20.5564 20.5629 20.5969 20.3829 20.6374 20.1984C20.6719 20.0394 20.7289 19.7844 20.7799 19.6854C21.8104 19.5234 22.5995 19.3194 23.1275 19.0749C23.558 18.8753 23.8235 18.6488 23.939 18.3818C23.9735 18.3023 23.9945 18.2198 23.999 18.1343C24.0155 17.8508 23.813 17.5973 23.5295 17.5523Z" fill="#ECEDF5"/>
</svg>
