<svg width="24" height="24" viewBox="0 0 24 24" fill="none" xmlns="http://www.w3.org/2000/svg">
<path d="M22.515 6.01758C21.1453 6.01758 19.8815 5.56383 18.8667 4.79836C17.7028 3.92086 16.8665 2.63367 16.5712 1.15008C16.4981 0.783516 16.4587 0.405234 16.455 0.0175781H12.5423V10.7088L12.5376 16.5649C12.5376 18.1305 11.5181 19.458 10.1048 19.9249C9.69465 20.0604 9.25168 20.1246 8.79043 20.0993C8.20168 20.067 7.64996 19.8893 7.17043 19.6024C6.14996 18.9921 5.45809 17.8849 5.43934 16.6184C5.40981 14.6388 7.01012 13.0249 8.98824 13.0249C9.37871 13.0249 9.75371 13.0887 10.1048 13.2045V10.2823V9.2318C9.73449 9.17695 9.35762 9.14836 8.97652 9.14836C6.81137 9.14836 4.78637 10.0484 3.33887 11.6698C2.2448 12.8951 1.58855 14.4584 1.4873 16.0976C1.35465 18.251 2.14262 20.298 3.67074 21.8084C3.89527 22.0301 4.13105 22.2359 4.37762 22.4257C5.68777 23.434 7.28949 23.9805 8.97652 23.9805C9.35762 23.9805 9.73449 23.9524 10.1048 23.8976C11.6807 23.6641 13.1348 22.9427 14.2823 21.8084C15.6923 20.4148 16.4714 18.5646 16.4798 16.5954L16.4597 7.85039C17.1323 8.3693 17.8678 8.79867 18.6572 9.13195C19.8848 9.64992 21.1865 9.91242 22.5262 9.91195V7.07086V6.01664C22.5272 6.01758 22.5159 6.01758 22.515 6.01758Z" fill="#ECEDF5"/>
</svg>
