<svg width="16" height="16" viewBox="0 0 16 16" fill="none" xmlns="http://www.w3.org/2000/svg">
<path d="M5.50415 10.2126C5.75692 9.93225 5.85803 9.6519 5.97599 9.39158C6.68376 7.9498 7.66114 6.76835 8.67223 5.62694C9.00926 5.24647 9.31259 4.80593 9.64962 4.42546C10.4922 3.4042 11.3685 2.44301 12.2953 1.5419C12.8851 0.98121 13.5592 0.540667 14.2332 0.120148C14.4186 -1.19356e-07 14.604 0 14.8062 0C14.8399 0.64079 15.0421 1.20148 15.1601 1.80222C15.2612 2.34289 15.5139 2.78343 15.8004 3.20395C16.1206 3.66452 16.0532 4.16514 15.6151 4.48553C15.1432 4.82595 14.6545 5.12632 14.1827 5.46674C13.694 5.82719 13.2053 6.20766 12.7166 6.58813C12.5481 6.7283 12.3627 6.84845 12.2953 7.12879C12.2616 7.24894 12.1268 7.36909 12.0257 7.44919C10.7113 8.55054 9.54851 9.85215 8.40261 11.1938C7.86336 11.8346 7.42522 12.5555 6.93653 13.2363C6.51524 13.817 6.0771 14.3978 5.68952 14.9985C5.521 15.2588 5.28508 15.419 5.20082 15.7995C5.13342 16.0798 4.8975 16.0598 4.77953 15.7795C4.29084 14.6381 3.80215 13.4766 3.31345 12.3352C3.17864 11.9948 3.01013 11.6944 2.82476 11.4141C2.36977 10.7132 1.88107 10.0524 1.40923 9.37156C1.29127 9.19134 1.17331 9.01111 0.93739 9.09121C0.785726 9.13126 0.684617 8.99109 0.71832 8.81087C0.785726 8.55054 0.650914 8.47045 0.532954 8.33027C0.38129 8.17008 0.246478 8.00988 0.111666 7.84968C0.0274083 7.76958 -0.0231462 7.66946 0.0105568 7.54931C0.0442599 7.42916 0.128517 7.36909 0.246478 7.38911C0.482399 7.44919 0.634063 7.28899 0.802578 7.12879C1.13961 6.82842 1.49349 6.5681 1.84737 6.28775C1.98218 6.18763 2.08329 6.08751 2.1844 5.88726C2.30236 5.62694 2.48773 5.38664 2.7742 5.34659C2.90902 5.32657 2.92587 5.22645 2.89217 5.04622C2.80791 4.7058 2.85846 4.66575 3.12809 4.7058C3.24605 4.72583 3.34716 4.74585 3.46512 4.68578C3.53252 4.64573 3.61678 4.66575 3.61678 4.74585C3.66733 5.1864 4.02122 5.40667 4.12233 5.82719C4.22343 6.22768 4.3751 6.60815 4.54361 6.98862C4.79639 7.58936 4.9649 8.23015 5.16712 8.85091C5.30193 9.27143 5.4536 9.69195 5.50415 10.2126ZM6.70061 9.93225C6.80172 9.9723 6.85227 9.8922 6.88597 9.79208C7.00393 9.35153 7.20615 8.91099 7.27356 8.37032C6.97023 8.63064 6.85227 8.97106 6.6669 9.25141C6.53209 9.43163 6.48154 9.59183 6.71746 9.732C6.78486 9.77205 6.75116 9.87218 6.70061 9.93225C6.68376 10.0724 6.65005 10.1926 6.61635 10.4128C6.80172 10.2126 6.80172 10.0724 6.70061 9.93225ZM7.07134 11.9948C7.35782 11.5743 7.678 11.1738 8.01503 10.7933C8.18354 10.6131 8.43631 10.4529 8.06558 10.2126C7.99817 10.1725 8.06558 9.9723 7.98132 9.85215C7.84651 10.0324 7.84651 10.2526 7.7791 10.4329C7.64429 10.8534 7.64429 10.8534 7.23986 10.7132C7.1893 11.1337 7.00393 11.5342 7.07134 11.9948C6.76801 12.0549 6.6669 11.8146 6.58265 11.5142C6.46469 11.9347 6.36358 12.3352 6.22876 12.8158C6.5995 12.5955 6.73431 12.155 7.07134 11.9948ZM4.03807 7.14882C3.53252 7.90975 3.21234 8.71074 3.01013 9.59183C3.31345 9.25141 3.54937 8.87094 3.73474 8.45042C3.7853 8.33027 3.819 8.1901 3.92011 8.13003C3.97066 8.08998 4.03807 8.06995 4.10547 8.11C4.17288 8.15005 4.18973 8.23015 4.17288 8.31025C4.15603 8.39035 4.10547 8.49047 4.05492 8.57057C3.76844 9.07119 3.56623 9.61185 3.34716 10.1325C3.27975 10.2927 3.17864 10.4529 3.2292 10.7332C3.56623 10.3528 3.819 9.9723 4.03807 9.59183C4.13918 9.41161 4.24029 9.17131 4.4425 9.33151C4.64472 9.49171 4.4425 9.67193 4.3751 9.8121C4.18973 10.1926 4.02122 10.553 3.90326 11.0937C4.13918 10.7933 4.22343 10.513 4.35825 10.2927C4.42565 10.1525 4.49306 9.95227 4.67843 10.0724C4.86379 10.1926 4.76268 10.3528 4.67843 10.513C4.62787 10.6131 4.56046 10.7132 4.52676 10.8133C4.42565 11.1137 4.22343 11.374 4.25714 11.7745C4.56046 11.4942 4.59417 10.9735 4.98175 10.8334C5.04916 10.8133 5.01546 10.6531 5.01546 10.573C5.01546 10.2326 4.91435 9.93225 4.84694 9.61185C4.64472 8.77082 4.49306 7.9498 4.03807 7.14882ZM10.2731 6.86847C10.5933 6.24771 10.7955 5.54684 11.0314 4.88603C11.2168 4.34536 11.3853 3.76464 11.6718 3.26403C11.7392 3.1639 11.8066 3.02373 11.9414 3.12385C12.0594 3.22398 12.0257 3.36415 11.9414 3.46427C11.7224 3.80469 11.5875 4.18516 11.4696 4.58566C11.2 5.46674 11.0146 6.36785 10.9472 7.30901C11.2505 6.60815 11.5875 5.94733 11.7224 5.16637C11.8909 4.22521 12.1099 3.30407 12.6829 2.56316C12.784 2.42299 12.8346 2.24277 12.8177 2.02249C12.7334 2.04252 12.6829 2.06254 12.6492 2.08257C12.1942 2.34289 11.8572 2.78343 11.4696 3.14388C11.2674 3.3241 11.0146 3.44425 11.1326 3.84474C11.1494 3.90482 11.0989 3.98491 11.0651 4.04499C10.509 4.90605 10.4248 5.90729 10.2731 6.86847ZM14.368 0.580716C14.1658 0.660815 13.9973 0.700864 13.9973 0.98121C13.9973 1.14141 13.9131 1.22151 13.7951 1.26156C13.5592 1.34165 13.4749 1.56193 13.4075 1.80222C13.2053 2.62324 12.9862 3.46427 12.784 4.28528C12.7672 4.32533 12.7672 4.40543 12.8177 4.44548C12.9188 4.40543 12.9525 4.28528 12.9862 4.18516C13.3064 3.42422 13.4749 2.60321 13.7951 1.84227C13.8625 1.68207 13.8625 1.32163 14.1153 1.48183C14.3343 1.622 14.149 1.8623 14.0816 2.02249C13.8288 2.66328 13.6266 3.34412 13.4581 4.02496C13.3907 4.28528 13.3233 4.56563 13.3738 4.92608C13.5929 4.60568 13.7277 4.34536 13.7782 4.00494C13.8625 3.42422 14.0647 2.90358 14.2838 2.38294C14.3849 2.12262 14.5366 1.98245 14.7556 1.92237C14.6377 1.44178 14.368 1.08133 14.368 0.580716ZM8.52057 9.11124C8.55427 9.03114 8.60483 8.95104 8.63853 8.85091C8.95871 7.84968 9.29574 6.84845 9.70018 5.88726C9.80129 5.66699 9.80129 5.32657 10.1215 5.38664C10.1889 5.40667 10.2057 5.28652 10.2394 5.22645C10.3237 4.9461 10.4585 4.68578 10.4248 4.32533C9.68332 4.90605 9.11037 5.62694 8.55427 6.36785C8.38576 6.58813 8.50372 6.70827 8.63853 6.82842C8.73964 6.70827 8.73964 6.5681 8.75649 6.42793C8.79019 6.28775 8.8576 6.22768 8.97556 6.26773C9.07667 6.30778 9.14408 6.38788 9.11037 6.52805C9.07667 6.62817 9.04297 6.74832 9.00926 6.84845C8.79019 7.58936 8.60483 8.33027 8.52057 9.11124ZM6.27932 10.2927C6.06025 10.6131 5.87488 10.9735 5.79063 11.3941C5.75692 11.5142 5.72322 11.6143 5.60526 11.6143C5.4873 11.6343 5.41989 11.5743 5.38619 11.4341C5.35249 11.334 5.31878 11.2138 5.20082 11.0937C4.94805 11.7945 4.64472 12.4353 4.56046 13.2563C4.86379 12.996 4.91435 12.6556 5.01546 12.3753C5.06601 12.2351 5.11657 12.0949 5.18397 11.9547C5.21767 11.8947 5.30193 11.8746 5.35249 11.9147C5.41989 11.9347 5.43674 12.0148 5.4536 12.0949C5.47045 12.2151 5.38619 12.3152 5.35249 12.4153C5.20082 12.8358 5.01546 13.2363 4.91435 13.6969C4.88064 13.8371 4.83009 13.9973 4.94805 14.0974C5.01546 14.1174 5.06601 14.0774 5.08286 14.0373C5.33563 13.3565 5.47045 12.5955 5.92544 12.0148C5.94229 11.9948 5.94229 11.9347 5.95914 11.9147C6.0771 11.374 6.17821 10.8334 6.27932 10.2927ZM10.627 6.8885C10.4585 7.16884 10.4079 7.36909 10.3405 7.58936C10.29 7.76958 10.2226 7.9498 10.1552 8.11C10.1215 8.21012 10.0372 8.25017 9.95295 8.23015C9.85184 8.21012 9.83499 8.11 9.83499 8.00988C9.83499 7.80963 9.83499 7.62941 9.83499 7.42916C9.81814 7.42916 9.80129 7.42916 9.78443 7.40914C9.58222 8.06995 9.38 8.73077 9.16093 9.47168C9.58222 9.19134 9.85184 8.81087 10.172 8.53052C10.627 8.15005 10.627 7.58936 10.627 6.8885ZM13.0031 5.06625C12.902 5.14635 12.8009 5.28652 12.7334 5.2665C12.4301 5.1864 12.3796 5.44672 12.3122 5.66699C12.2448 5.92731 12.1436 6.16761 12.0257 6.38788C11.9583 6.50803 11.8572 6.62817 11.7561 6.52805C11.6044 6.36785 11.537 6.46798 11.4864 6.62817C11.419 6.82842 11.3516 7.02867 11.2337 7.34906C11.8235 6.82842 12.3122 6.36785 12.8177 5.92731C12.9525 5.80716 13.1547 5.74709 13.1716 5.56687C13.2053 5.42669 13.0873 5.24647 13.0031 5.06625ZM14.8399 2.22274C14.368 2.96365 14.0479 4.00494 14.1321 4.48553C14.5871 4.12509 14.7388 3.54437 14.9578 3.02373C15.0758 2.76341 14.9073 2.54314 14.8399 2.22274ZM2.117 8.17008C2.1507 8.1901 2.1844 8.21012 2.2181 8.23015C2.60569 7.52929 2.99327 6.8084 3.36401 6.08751C3.48197 5.86724 3.46512 5.86724 3.21234 5.62694C2.89217 6.52805 2.36977 7.26897 2.117 8.17008ZM3.73474 6.34783C3.24605 6.94857 2.48773 8.5105 2.45403 8.95104C2.48773 8.93101 2.52143 8.91099 2.53828 8.89097C2.95957 8.17008 3.36401 7.42916 3.83585 6.74832C3.93696 6.5681 3.819 6.44795 3.73474 6.34783ZM11.9751 5.84721C12.2616 5.24647 12.5481 4.64573 12.4638 3.80469C12.1436 4.50556 12.0257 5.16637 11.9751 5.84721ZM2.63939 9.27143C2.55514 9.53176 2.20125 9.67193 2.40347 10.0324C2.53828 10.2727 2.63939 10.533 2.82476 10.7132C2.95957 10.6131 2.99327 10.4729 2.99327 10.2727C2.7742 10.3327 2.62254 10.2526 2.58884 9.9723C2.55514 9.75203 2.72365 9.53176 2.63939 9.27143ZM8.43631 10.1725C8.68909 10.1125 8.84075 9.95227 8.97556 9.77205C8.73964 9.6519 8.90816 9.33151 8.79019 9.11124C8.67223 9.47168 8.55427 9.83213 8.43631 10.1725ZM4.4425 12.2151C3.97066 12.8759 3.97066 12.8759 4.22343 13.2563C4.29084 12.9159 4.3751 12.5755 4.4425 12.2151ZM1.24072 8.15005C1.5946 7.70951 1.74626 7.44919 1.86422 7.02867C1.5946 7.28899 1.37553 7.60938 1.24072 8.15005ZM1.83052 7.92978C1.57775 8.13003 1.51034 8.39035 1.42608 8.61062C1.39238 8.69072 1.45979 8.79084 1.54404 8.83089C1.61145 8.85091 1.66201 8.79084 1.67886 8.71074C1.72941 8.47045 1.77997 8.23015 1.83052 7.92978ZM8.45316 7.22891C8.16669 7.72953 8.11613 7.88973 8.16669 8.2702C8.31835 7.92978 8.41946 7.58936 8.45316 7.22891ZM7.98132 7.24894C7.86336 7.42916 7.76225 7.60939 7.64429 7.78961C7.61059 7.84968 7.62744 7.88973 7.66114 7.92978C7.7117 7.98985 7.7791 8.00988 7.82966 7.92978C7.94762 7.72953 8.01503 7.50926 7.98132 7.24894ZM5.40304 13.9772C5.41989 13.9973 5.4536 14.0173 5.47045 14.0173C5.60526 13.797 5.72322 13.5968 5.85803 13.3765C5.89174 13.2964 5.87488 13.2163 5.82433 13.1763C5.75692 13.1362 5.70637 13.1963 5.67267 13.2563C5.57156 13.4966 5.4873 13.7369 5.40304 13.9772ZM3.36401 11.5743C3.46512 11.2739 3.56623 11.0937 3.54937 10.7733C3.39771 11.0336 3.16179 11.1738 3.36401 11.5743ZM15.1264 3.60445C15.1095 3.66452 15.0758 3.74462 15.059 3.80469C15.0421 3.86477 15.0084 3.94487 15.0927 4.00494C15.1095 4.02496 15.1601 4.00494 15.1938 3.98491C15.2612 3.94486 15.278 3.88479 15.2612 3.80469C15.2106 3.74462 15.2106 3.66452 15.1264 3.60445ZM13.7951 4.90605C13.7445 4.92607 13.7108 5.00617 13.6771 5.08627C13.6603 5.14635 13.6603 5.16637 13.7108 5.16637C13.7951 5.16637 13.8625 5.12632 13.8962 5.0262C13.9131 4.96612 13.8794 4.92607 13.7951 4.90605Z" fill="#BF1F3C"/>
</svg>
