<svg width="52" height="24" viewBox="0 0 52 24" fill="none" xmlns="http://www.w3.org/2000/svg">
<path fill-rule="evenodd" clip-rule="evenodd" d="M8.77437 13.1279C8.33692 12.1939 9.56847 12.2396 11.3748 10.8574C11.5826 10.6974 11.7107 10.5669 11.9081 10.4372L16.0182 7.35718C16.3114 7.09253 16.2768 7.20459 16.4465 6.99375L8.88517 11.1685C8.4131 11.4774 8.15571 11.644 7.69748 11.927C7.22194 12.2204 7.03496 12.5669 6.19123 12.6591C6.16122 11.9683 6.38975 12.0317 6.89415 11.672C7.97449 10.9016 9.22451 10.1659 10.1814 9.32549L5.965 11.5842C5.46984 11.9248 5.77109 11.7899 5.22284 11.8659C4.65496 11.0247 6.04464 11.1876 6.99687 9.82015C5.76647 9.86143 5.97885 10.1644 4.85926 10.3929C4.8708 10.4121 4.9389 10.4372 4.91235 10.4445C4.3237 10.606 5.01162 10.5433 5.03124 10.5706L5.19514 10.8802C4.6792 11.066 4.79462 11.0284 4.29138 11.2916C3.26067 11.8305 2.49657 11.529 3.74544 10.7947C4.17135 10.5441 4.55108 10.2676 4.78539 10.0944C3.80084 10.1711 2.35461 10.5684 1.77865 10.9842C2.06605 11.2835 4.60764 12.4519 5.27132 12.7291C6.00078 13.0343 6.4313 13.2333 7.14461 13.5607C7.75288 13.8393 8.48812 14.1276 8.99251 14.3952L11.0078 12.7748C11.743 12.2042 12.4425 11.8179 13.1916 11.2591C13.6255 10.9355 17.0732 8.49394 17.2994 8.10028L15.2391 9.27905C14.7798 9.59899 14.8709 9.60341 14.2581 9.91303C14.1092 9.98823 13.8033 10.1364 13.6971 10.1976L8.77437 13.1279ZM26.8564 10.9761L27.8351 10.2632C27.4739 10.477 27.093 10.6495 26.8564 10.9761ZM30.2428 23.0712C30.2844 22.39 30.3906 21.8062 30.4529 21.122C30.5429 20.1217 31.0104 19.9595 30.6237 19.5769L27.9078 22.1401C28.4826 22.5161 29.3241 22.9024 30.2428 23.0712ZM28.8555 19.641C29.4476 19.4213 29.7661 19.1604 30.169 18.8051C30.4794 18.5323 31.0104 18.3664 30.9942 17.8474C30.5475 17.9838 29.054 19.4037 28.8555 19.641ZM37.0031 16.5338C37.9149 15.543 40.3965 14.1902 40.7358 13.4552C39.9821 13.6145 40.0964 13.6683 39.218 14.1829L35.6907 16.491L37.0031 16.5338ZM40.2072 16.2057C40.2257 16.177 40.2372 16.1401 40.2557 16.1114C40.4473 15.8224 40.3157 15.9764 40.61 15.7162C40.8847 15.4744 41.0902 15.3557 41.433 15.094C42.0032 14.6613 42.6057 14.2381 42.9969 13.7641C42.3517 13.9175 41.014 14.8463 40.393 15.1965L38.035 16.4822C38.0673 16.4917 37.9726 16.5264 37.9438 16.5699L39.951 16.5669L40.2072 16.2057ZM42.8423 16.6281C43.0754 15.1537 45.6666 14.4726 45.6147 13.6735C45.4069 13.7693 45.2869 13.8261 44.9972 13.9543C44.8091 14.0384 44.8079 14.0273 44.6302 14.1165L43.1978 15.0859C42.2409 15.7066 41.276 15.986 40.7855 16.5492L42.8423 16.6281ZM45.0549 16.6554C44.5205 15.9241 45.4681 15.961 45.6447 15.3432C45.1449 15.6469 44.0507 16.0258 43.6652 16.5625C43.7126 16.578 43.7703 16.6016 43.8072 16.609L45.0549 16.6554ZM44.1292 10.8647C44.3843 10.6967 44.7179 10.5323 44.8633 10.331L46.5969 8.63474C47.1394 8.2396 47.5676 7.85405 47.8608 7.38741L45.7474 7.57982C45.7244 7.61447 45.6528 7.74421 45.6309 7.78181C45.5501 7.91671 45.5431 7.95873 45.415 8.14229L44.7571 7.99412C43.8926 8.09585 40.0202 10.5448 39.8782 10.5876L39.4016 10.1084C38.7148 10.8235 37.2478 11.8135 36.6268 12.4143C36.2148 12.8131 35.7738 13.1574 35.2879 13.5835L34.4015 14.2735C34.3692 14.3045 34.2849 14.4084 34.2595 14.4416C33.934 14.8552 34.024 14.9075 34.4315 15.1147C33.5762 15.5216 32.8133 15.8659 32.512 16.5721L34.4638 16.575C34.6612 16.1954 36.6245 14.5935 37.1139 14.2389C37.8133 13.7317 39.3092 12.7004 39.779 11.9543L36.4837 13.7427C36.4387 13.7671 36.3152 13.8474 36.2736 13.8659C36.0416 13.9691 36.1686 13.9587 35.8431 13.9418L39.7755 11.5076C40.4946 11.0535 41.0405 10.6709 41.7261 10.2182C43.4921 9.05199 42.496 9.03577 43.6976 8.98122C43.7137 9.0225 43.813 9.2444 43.8026 9.33212C43.7714 9.58203 43.761 9.50536 43.6398 9.62479C43.394 9.86512 43.6999 9.56581 43.3063 9.8113C40.9563 11.2783 39.6913 12.4991 37.8514 14.0833C37.3343 14.5286 36.1409 15.2348 35.9828 15.7737L44.1292 10.8647ZM47.4869 15.2894L45.3631 16.6672L46.1029 16.6775C46.1283 16.6539 46.1618 16.6193 46.1757 16.6038L46.7689 15.9713C47.0425 15.7081 47.2352 15.5739 47.4869 15.2894ZM47.4869 15.2894L47.9878 14.8316L47.4869 15.2894ZM49.4767 13.1397C48.6838 13.3815 47.1198 14.6023 46.7539 15.0233C47.4453 14.6952 49.0762 13.6528 49.4767 13.1397ZM49.4767 13.1397L50.3078 12.9768C50.3355 13.7 48.7923 14.6805 47.608 15.8777C48.1713 15.7044 49.3521 14.9422 49.8542 14.5205C50.9564 13.5946 50.9795 14.0229 51.0984 12.5065C51.1665 11.6366 50.9045 7.91893 50.5894 7.34539L49.0797 7.31295C48.5441 7.64322 48.3421 8.00223 47.7904 8.38631C45.2846 10.132 47.2364 9.39626 46.1203 10.2367L38.6686 15.686C39.9694 15.3808 43.1343 13.2997 44.1177 12.6421C45.0942 11.989 45.9333 11.54 46.7355 11.0078C48.1309 10.0848 48.2763 9.48841 49.0658 9.3395C49.5206 10.0103 48.3352 10.5809 47.7027 10.9915L43.6872 13.7523C43.1135 14.2617 42.2213 14.7424 41.9074 15.2569C43.0974 15.1029 45.0053 13.5216 46.0129 12.9562C46.7124 12.564 47.2098 12.3354 47.9878 11.8084C48.8546 11.2208 49.2205 10.7682 50.003 10.777C50.115 11.5525 45.7659 13.3837 44.3231 15.5533C45.4312 15.1088 46.5231 14.3465 47.3183 13.787C48.6018 12.8839 49.3832 11.9735 50.1 11.8843C50.4313 12.4615 49.7618 12.6701 49.4767 13.1397ZM47.1787 16.7534C48.334 16.791 49.6972 16.9525 50.8664 16.7704L50.8122 14.7158C50.3816 15.0284 49.0785 16.087 48.8327 16.4033C48.6157 16.0855 48.7819 16.0804 49.045 15.7988C48.4091 15.9366 47.3876 16.3915 47.1787 16.7534ZM26.4778 18.3303C25.993 19.2046 24.6864 19.787 24.2224 20.693C25.1216 21.094 26.1823 21.4545 27.0514 21.8017C27.8178 21.5194 28.3072 21.0188 28.6939 20.5846C27.8698 20.7734 27.8709 21.0365 27.4473 20.7579C26.734 20.289 28.0764 19.5843 28.4261 19.3425L30.8696 17.3609C31.1789 16.9908 31.1154 16.8537 31.4813 16.6023C32.1231 16.1615 32.0919 16.4505 32.2419 15.7428C31.0439 16.1416 29.9358 17.2518 28.0637 18.0553L33.5139 14.3369C35.5811 13.5157 35.8916 12.5802 37.3609 11.4833C38.3108 10.7748 39.3623 9.77149 39.9036 8.81683L38.8268 9.09475C39.2123 8.75343 39.7663 8.4733 40.2326 8.24624L41.4157 7.74863C42.7372 7.60709 41.635 8.65096 41.3499 9.04904C42.0828 9.02766 44.0588 7.8828 44.674 7.48546C44.704 7.46629 44.7514 7.42869 44.7894 7.39994C42.4441 7.35497 40.3249 7.22375 37.9865 7.36087C35.8777 7.48472 33.7436 7.75306 31.6152 7.7619L23.8011 13.9779C22.9597 14.6716 22.1217 15.1921 21.3877 16.1372C22.9355 15.6049 24.122 14.2986 25.4874 13.9875C25.0385 14.5478 22.0202 16.362 20.9156 16.9628C19.8156 17.5614 19.7556 16.8146 20.4274 16.2595C20.8371 15.9204 20.9664 15.8039 21.4131 15.4906L23.3037 14.0413C24.0089 13.4766 26.4351 11.6734 26.8564 10.9761C25.5244 11.3366 22.9447 13.3793 21.9625 13.9447C20.844 14.5883 18.3902 16.6325 17.1113 16.9083C16.3691 16.3782 17.5545 15.7391 18.112 15.2886C19.1785 14.4261 23.523 10.9967 23.9189 10.1253C23.1513 10.3524 23.0117 10.7652 22.3664 11.0446C22.6723 10.2448 27.2084 7.70293 28.358 6.49172C29.2086 5.59456 30.2324 6.14745 29.2641 6.81682C27.8905 7.76633 26.6463 8.63916 25.4655 9.71915C24.923 10.2153 24.5456 10.4962 24.0043 10.9392C22.5811 12.1047 19.0711 14.8743 18.2886 15.784C19.8618 15.3963 25.8395 11.0129 27.3607 10.0494L30.2463 7.94104C29.5942 7.18542 30.431 5.24365 29.9704 4.18799L21.2192 10.6834C20.1065 11.5253 16.2999 14.0295 15.9675 14.7468C17.0189 14.2551 17.6261 13.7044 18.8276 13.1449C18.5806 13.7597 16.503 14.7815 15.7955 15.3292C15.4238 15.6182 15.1018 15.8799 14.4058 15.8998C14.2765 14.937 17.805 12.8979 18.7872 12.045C20.0638 10.9385 20.9491 10.522 21.9971 9.65723C22.3595 9.35866 22.2764 9.28052 22.7058 8.965L25.2797 7.19058C25.8799 6.75711 26.4685 6.40399 26.854 5.87174C25.7968 6.30152 24.8815 7.02619 23.935 7.59604L22.1679 8.66718C22.2175 8.23002 22.4519 8.303 22.9378 7.98232L30.2301 2.92223C30.1286 2.45559 29.72 2.01327 29.8146 1.34759L30.1436 0.797643C30.4113 0.363436 30.2509 0.346481 30.6618 0C31.4998 0.955402 31.1558 2.25434 31.1131 3.37708C31.0669 4.6281 30.9723 5.93293 31.1096 7.12939C33.5866 6.37303 45.4566 7.06305 49.6106 6.75269C50.9657 6.65169 50.8249 6.41579 51.8232 6.8006L51.612 9.46334C51.657 10.4165 51.9075 11.2569 51.8879 12.2514C51.8694 13.1965 51.754 14.2352 51.8152 15.1677C51.8821 16.1865 52.338 16.8109 51.507 17.5997C47.2699 17.1014 42.5941 17.3078 38.3454 17.5437C38.0465 17.5607 37.706 17.5813 37.4278 17.526L37.0389 17.3801C36.5391 17.1862 36.1455 17.4213 35.6111 17.4007C34.9959 17.3771 35.5049 17.2857 34.5238 17.3823C34.0391 17.4302 33.7182 17.4412 33.1919 17.4265C31.1962 17.3683 31.8276 17.7206 31.4455 20.4947C31.3024 21.5275 31.4524 22.993 31.2378 23.916C30.2417 24.0878 30.3744 23.9942 29.6473 23.6528C28.6373 23.1796 27.737 22.954 26.7779 22.4424L19.0919 19.3653C18.4259 19.1279 17.6041 18.8847 17.0513 18.6355C14.6805 17.5688 11.9358 16.5721 9.64696 15.383L4.07901 12.8552C2.65701 12.3281 1.54781 11.6381 0 11.4088C0.00923375 10.5721 1.82251 10.2322 3.40494 9.83489C4.17712 9.64101 4.74153 9.4287 5.40059 9.2009C6.09658 8.95984 6.70139 8.80577 7.38353 8.56397C9.83625 7.69408 12.2636 6.59345 14.6401 5.70956C18.3521 4.3288 22.0479 2.85589 25.8187 1.58054L28.5173 0.511612C29.1371 0.198305 28.7885 0.215998 29.7696 0.367859C29.7811 1.16108 29.7569 0.914856 28.9397 1.15739C26.2608 1.95135 16.241 5.89607 13.3866 6.93625C12.4194 7.28863 11.3898 7.60857 10.4457 7.97938C9.3861 8.39515 8.72358 8.80135 7.60284 9.09991L8.05529 10.1253C8.2919 9.73832 8.96597 9.44786 9.50499 9.15888C10.1837 8.79545 10.4884 8.44086 11.3737 8.46445C11.586 8.77554 11.4337 8.9075 11.3183 9.21786C12.0939 9.02472 12.5971 8.61778 13.1165 8.29563L16.4603 6.37819C17.0813 5.98379 17.5499 5.63142 18.5229 5.65353C18.8692 6.39662 17.7138 6.80503 17.0213 7.37045C16.3772 7.89755 15.1757 8.69519 14.9829 9.03135C16.5838 8.2573 19.5317 6.49983 20.8417 5.23702C21.1914 4.90086 21.0749 4.84041 21.495 4.57207C22.1737 4.70771 21.9786 4.63768 22.2937 5.02544C21.9879 5.47734 22.131 5.23407 21.6739 5.52157C20.4597 6.28383 16.6057 9.5953 14.7301 10.8441L12.5233 12.4659C12.1712 12.721 12.5221 12.4114 12.1955 12.7313C12.6872 12.4114 12.3132 12.4136 12.9526 12.5721L11.1844 13.5268C10.9916 13.6602 10.6119 13.8865 10.3764 14.0214L9.50499 14.7114C10.755 15.0505 21.6474 20.0974 23.6823 20.4173C24.526 19.8821 25.5809 18.62 26.4778 18.3303Z" fill="#2E0E59"/>
<path fill-rule="evenodd" clip-rule="evenodd" d="M26.4777 18.3307C26.6486 17.8987 31.2481 14.1736 32.3216 13.0877L33.1468 12.2525C32.7359 12.3999 32.1103 12.7855 31.8172 13.0037L27.7705 15.7527C27.3388 16.0402 26.936 16.2695 26.45 16.5533C25.4805 17.1187 22.7635 18.9669 22.0236 18.8769C21.6566 18.2864 24.4567 16.4383 25.1596 15.8618C25.9676 15.1998 30.5475 11.1637 30.8003 10.714C30.1966 10.8872 30.3305 10.9337 29.548 11.4401L27.0756 13.0288C26.0126 13.6517 26.8482 13.5581 25.6317 13.8308C25.8995 13.4696 25.6179 13.7269 25.9768 13.4608C26.0288 13.4224 26.3889 13.219 26.4835 13.1592L31.1777 9.81756C31.6475 9.46813 32.3874 8.58128 33.036 8.67712C33.0787 8.7442 33.5635 8.58497 32.8987 9.26392L28.3314 13.4556C27.4311 14.2164 23.4606 17.421 23.1571 18.0601C24.5202 17.6399 25.3916 16.9241 26.4108 16.279C29.219 14.5024 31.5136 13.0022 33.9144 10.9292C34.4326 10.481 34.6508 10.0564 35.5765 9.94509C35.7392 10.4125 35.4079 10.6196 34.9209 11.0678L30.2232 15.2949C29.7119 15.7365 26.9902 18.167 26.4777 18.3307Z" fill="#2E0E59"/>
<path fill-rule="evenodd" clip-rule="evenodd" d="M15.5288 12.5065C15.9167 12.8825 15.5404 12.6554 15.9213 12.7594L14.0122 14.0649C13.2308 14.5603 12.5463 15.299 11.9358 15.1833C11.5883 14.626 12.4032 14.4837 13.5817 13.532L16.847 11.3123C17.3756 10.9459 17.3721 10.7948 17.8488 10.4284C18.2782 10.0988 19.5721 9.34691 19.9207 8.6886C19.1646 8.93261 19.8491 8.81318 19.0365 8.9503L21.0806 7.91381C21.5354 7.3071 23.0128 6.34358 23.7723 5.8445C24.2017 5.56363 24.3505 5.36164 24.7672 5.08593L28.2934 2.29123C29.1659 2.16812 29.1059 2.88025 27.6585 3.76562C25.7829 4.91343 25.5128 5.1943 24.0643 6.28682C22.3491 7.5806 20.5058 8.80139 18.8576 10.1888C16.6727 12.0303 18.2378 10.9732 17.4518 11.7155C17.3179 11.8423 17.2267 11.8585 17.0478 11.8976L16.7062 11.9219C16.1256 12.0539 16.2225 12.3819 15.5288 12.5065Z" fill="#2E0E59"/>
<path fill-rule="evenodd" clip-rule="evenodd" d="M13.2354 12.2435L13.4847 12.0968C14.4139 11.5535 14.4254 11.2623 15.2565 11.2822C14.7982 11.6685 14.8536 11.4193 14.3296 11.7194C13.6232 12.1241 14.3527 12.0577 13.2354 12.2435Z" fill="#2E0E59"/>
<path fill-rule="evenodd" clip-rule="evenodd" d="M44.2482 9.0011C44.6706 8.76593 44.6464 8.7475 44.8103 8.37891L44.6556 8.80574C44.262 9.14927 44.5344 8.91706 44.2482 9.0011Z" fill="#2E0E59"/>
</svg>
