<svg width="11" height="16" viewBox="0 0 11 16" fill="none" xmlns="http://www.w3.org/2000/svg">
<path d="M6.18349 15.7176C6.16715 15.3908 6.02008 15.0966 5.95471 14.7861C5.88935 14.4593 5.80764 14.1162 5.72593 13.7893C5.64423 13.4788 5.54618 13.1847 5.38276 12.9069C5.26837 12.6944 5.15399 12.482 5.05594 12.2532C5.00691 12.1552 4.94155 12.0571 4.89252 11.9754C4.85984 11.9264 4.82716 11.861 4.74545 11.8774C4.69643 11.8774 4.66374 11.8447 4.69643 11.7957C4.72911 11.714 4.69643 11.6649 4.6474 11.6159C4.46765 11.4525 4.3696 11.2237 4.1735 11.0766C4.09179 11.0113 4.02643 10.9296 3.9774 10.8315C3.87936 10.6845 3.79765 10.5374 3.61789 10.5047C3.60155 10.5047 3.58521 10.4884 3.58521 10.472C3.60155 10.3413 3.47082 10.2923 3.4218 10.1942C3.29106 9.98178 3.09497 9.8347 2.9479 9.62226C2.63741 9.19739 2.26156 8.80519 1.91839 8.39666C1.70595 8.15154 1.54253 7.87373 1.4118 7.56325C1.3301 7.33447 1.24839 7.12203 1.21571 6.87691C1.19936 6.7952 1.16668 6.76252 1.10132 6.72984C1.06863 6.71349 1.03595 6.68081 1.06863 6.63179C1.16668 6.5174 1.10132 6.40301 1.08497 6.28862C1.05229 6.15789 1.05229 6.0435 1.03595 5.91277C0.970585 5.43886 0.970585 4.9813 1.06863 4.5074C1.134 4.21326 1.16668 3.90277 1.28107 3.60863C1.42814 3.21643 1.62424 2.84058 1.86936 2.51375C2.03278 2.30131 2.17985 2.08888 2.3596 1.89278C2.67009 1.53327 3.01326 1.20644 3.4218 0.961318C3.73228 0.781563 4.04277 0.585466 4.33691 0.373027C4.33691 0.389369 4.3696 0.373027 4.38594 0.373027C4.56569 0.389369 4.69643 0.274979 4.8435 0.242296C5.05594 0.193272 5.26837 0.160589 5.49715 0.127906C5.75862 0.0952235 6.03642 0.0788821 6.29788 0.111565C6.59203 0.144248 6.86983 0.160589 7.16398 0.242296C7.45812 0.324003 7.73593 0.422052 7.99739 0.552783C8.22617 0.667173 8.45495 0.814245 8.65105 0.961318C8.8308 1.09205 9.0269 1.23912 9.17397 1.40254C9.43543 1.69668 9.6969 1.95814 9.87665 2.30131C10.0074 2.56278 10.2035 2.79156 10.3342 3.05302C10.4486 3.29814 10.5793 3.51058 10.6774 3.7557C10.7591 3.9518 10.7918 4.16423 10.8408 4.37667C10.8898 4.58911 10.8571 4.80155 10.9388 4.99765C10.9552 5.01399 10.9388 5.04667 10.9388 5.07935C10.9388 5.19374 10.9225 5.29179 10.9715 5.38984C11.0042 5.48789 10.9879 5.61862 10.9715 5.73301C10.9552 5.89642 10.9388 6.05984 10.8898 6.22325C10.8571 6.30496 10.8571 6.38667 10.8408 6.48471C10.7754 6.82788 10.6447 7.15471 10.514 7.48154C10.3015 8.02081 9.9747 8.51105 9.64787 9.00129C9.43543 9.32812 9.19031 9.63861 8.97787 9.94909C8.78178 10.2269 8.56934 10.5047 8.37324 10.7662C7.99739 11.2564 7.62154 11.7466 7.36007 12.3349C7.24569 12.5964 7.09861 12.8252 6.98422 13.0866C6.9352 13.201 6.90252 13.3318 6.86983 13.4462C6.7391 13.8547 6.64105 14.2796 6.55935 14.7044C6.51032 14.9332 6.4613 15.162 6.41227 15.3908C6.41227 15.4398 6.39593 15.4888 6.39593 15.5379C6.39593 15.6686 6.33057 15.7176 6.18349 15.7176ZM2.49034 2.20326C2.52302 2.1379 2.57204 2.08888 2.60473 2.02351C2.63741 2.02351 2.65375 2.00717 2.67009 1.99083C2.76814 1.8601 2.88253 1.76205 2.98058 1.64766C2.99692 1.59863 3.06228 1.59863 3.09497 1.54961C3.11131 1.53327 3.11131 1.51693 3.09497 1.50058C3.09497 1.50058 3.07863 1.48424 3.06228 1.48424C3.01326 1.48424 2.96424 1.54961 2.98058 1.63132C2.96424 1.63132 2.9479 1.61497 2.93155 1.61497C2.80082 1.72936 2.65375 1.82741 2.58838 1.99083C2.52302 2.05619 2.45765 2.10522 2.49034 2.20326C2.44131 2.20326 2.37595 2.18692 2.37595 2.26863C2.42497 2.28497 2.42497 2.20326 2.49034 2.20326ZM1.37912 5.86374C1.46083 5.83106 1.49351 5.76569 1.52619 5.68399C1.47717 5.74935 1.37912 5.76569 1.37912 5.86374C1.28107 5.92911 1.28107 5.92911 1.23205 6.02715C1.31375 5.97813 1.36278 5.94545 1.37912 5.86374ZM8.24251 2.6118C8.20983 2.6118 8.17715 2.62814 8.1608 2.6118C8.0791 2.54643 8.01373 2.57912 7.96471 2.64448C7.93202 2.67717 7.883 2.69351 7.86666 2.72619C7.94837 2.8079 7.96471 2.82424 7.99739 2.79156C8.0791 2.72619 8.19349 2.70985 8.24251 2.6118C8.32422 2.62814 8.32422 2.51375 8.38958 2.53009C8.52032 2.36668 8.70007 2.28497 8.84714 2.1379C8.96153 2.02351 9.10861 1.9418 9.25568 1.84375C9.01056 1.54961 8.76544 1.2718 8.43861 1.07571C8.40592 1.04303 8.38958 1.02668 8.3569 1.07571C8.17715 1.2718 7.99739 1.4679 7.81764 1.68034C7.80129 1.69668 7.75227 1.71302 7.78495 1.76205C7.89934 1.664 7.99739 1.56595 8.11178 1.48424C8.22617 1.40254 8.32422 1.32083 8.43861 1.23912C8.50397 1.1901 8.58568 1.20644 8.61836 1.2718C8.65105 1.33717 8.61836 1.36985 8.56934 1.40254C8.29154 1.63132 8.04641 1.90912 7.80129 2.17058C7.78495 2.18692 7.76861 2.20326 7.80129 2.23595C7.81763 2.23595 7.83398 2.23595 7.85032 2.21961C8.11178 1.97449 8.43861 1.79473 8.68373 1.53327C8.71641 1.50058 8.81446 1.50058 8.84714 1.54961C8.87983 1.59863 8.86348 1.64766 8.81446 1.68034C8.79812 1.69668 8.78178 1.71302 8.76544 1.72936C8.66739 1.81107 8.56934 1.90912 8.47129 1.99083C8.50397 2.00717 8.53666 1.99083 8.553 1.97449C8.63471 1.92546 8.73275 1.89278 8.79812 1.81107C8.86348 1.74571 8.97787 1.76205 9.01056 1.82741C9.04324 1.90912 8.97787 1.92546 8.92885 1.97449C8.91251 1.97449 8.91251 1.99083 8.89617 1.99083C8.73275 2.12156 8.58568 2.25229 8.42227 2.38302C8.38958 2.4157 8.30788 2.44839 8.3569 2.53009C8.34056 2.53009 8.25885 2.51375 8.24251 2.6118ZM2.09814 2.79156C2.04912 2.77521 2.04912 2.82424 2.01643 2.84058C2.00009 2.85692 1.98375 2.8896 1.96741 2.85692C1.93473 2.79156 1.90205 2.82424 1.8857 2.85692C1.73863 3.10204 1.59156 3.33082 1.47717 3.59228C1.46083 3.60863 1.42814 3.64131 1.47717 3.67399C1.55888 3.57594 1.68961 3.51058 1.64058 3.34716C1.62424 3.31448 1.65692 3.2818 1.68961 3.26546C1.73863 3.20009 1.78766 3.15107 1.83668 3.0857C1.93473 2.98765 2.04912 2.92229 2.09814 2.79156C2.16351 2.75887 2.19619 2.70985 2.22887 2.64448C2.17985 2.69351 2.06546 2.67717 2.09814 2.79156ZM2.06546 8.18422C2.04912 8.26593 2.13082 8.29861 2.14717 8.34763C2.17985 8.413 2.22887 8.39666 2.26156 8.34763C2.47399 8.06983 2.73546 7.80837 2.91521 7.51422C2.93155 7.49788 2.9479 7.4652 2.89887 7.44886C2.81716 7.57959 2.70277 7.6613 2.60473 7.75934C2.5557 7.80837 2.50668 7.85739 2.47399 7.92276C2.42497 8.00447 2.3596 8.08617 2.29424 8.15154C2.22887 8.23324 2.14717 8.26593 2.06546 8.18422C2.03278 8.11885 2.06546 8.08617 2.09814 8.03715C2.21253 7.89008 2.34326 7.743 2.45765 7.57959C2.50668 7.51422 2.57204 7.4652 2.53936 7.38349C2.63741 7.38349 2.63741 7.38349 2.65375 7.28544C2.60473 7.30178 2.58838 7.36715 2.53936 7.38349C2.40863 7.56325 2.22887 7.71032 2.11448 7.90642C2.06546 7.98812 2.01643 7.98812 1.95107 7.92276C1.8857 7.87373 1.93473 7.82471 1.96741 7.79203C1.98375 7.77569 1.98375 7.75934 2.00009 7.75934C2.22887 7.4652 2.44131 7.17105 2.67009 6.87691C2.70277 6.84422 2.73546 6.81154 2.71912 6.74618C2.63741 6.82788 2.5557 6.89325 2.47399 6.97496C2.29424 7.17105 2.13082 7.36715 1.95107 7.57959C1.8857 7.6613 1.77131 7.69398 1.73863 7.77569C1.70595 7.87373 1.85302 7.92276 1.8857 8.02081C1.91839 8.06983 1.93473 8.11886 1.96741 8.16788C2.00009 8.20056 2.03278 8.18422 2.06546 8.18422ZM6.72276 11.763C7.11495 11.3545 7.47447 10.9132 7.89934 10.521C7.93202 10.4884 7.96471 10.4393 7.98105 10.4067C8.03007 10.2923 8.11178 10.1779 8.17715 10.0635C8.19349 10.0308 8.24251 9.99812 8.22617 9.94909C8.19349 9.94909 8.19349 9.96543 8.17715 9.98178C7.91568 10.2432 7.67056 10.5374 7.42544 10.7988C7.213 11.0276 7.03325 11.2891 6.83715 11.5506C6.75544 11.5996 6.69008 11.6649 6.72276 11.763C6.65739 11.7793 6.65739 11.7793 6.64105 11.8284C6.67374 11.8284 6.69008 11.7957 6.72276 11.763ZM1.98375 4.8996C1.91839 4.91594 1.8857 4.96496 1.85302 5.01399C1.73863 5.14472 1.62424 5.27545 1.49351 5.40618C1.39546 5.50423 1.39546 5.50423 1.26473 5.40618C1.31375 5.35716 1.37912 5.30813 1.3301 5.21008C1.31375 5.19374 1.34644 5.16106 1.36278 5.14472C1.50985 5.07935 1.55888 4.88326 1.70595 4.81789C1.72229 4.81789 1.72229 4.80155 1.72229 4.78521C1.73863 4.68716 1.78766 4.63813 1.85302 4.57277C1.93473 4.49106 2.00009 4.39301 2.09814 4.31131C2.31058 4.09887 2.50668 3.88643 2.73546 3.69033C2.80082 3.64131 2.86619 3.59228 2.89887 3.51058C2.83351 3.51058 2.81716 3.54326 2.80082 3.57594C2.78448 3.59228 2.76814 3.60863 2.7518 3.60863C2.70277 3.49424 2.65375 3.57594 2.62107 3.60863C2.37595 3.85375 2.13082 4.08253 1.90205 4.32765C1.72229 4.5074 1.55888 4.71984 1.36278 4.88326C1.26473 4.96496 1.23205 5.04667 1.21571 5.14472C1.19936 5.32447 1.19936 5.50423 1.24839 5.68399C1.31375 5.68399 1.34644 5.6513 1.37912 5.60228C1.47717 5.48789 1.59156 5.35716 1.70595 5.25911C1.804 5.1774 1.90205 5.04667 1.98375 4.93228C1.98375 4.94862 1.98375 4.93228 1.98375 4.8996C2.03278 4.91594 2.0818 4.88326 2.0818 4.83423L2.06546 4.81789C2.01644 4.81789 2.01644 4.86691 1.98375 4.8996ZM9.95836 2.8896C9.95836 2.87326 9.95836 2.87326 9.95836 2.85692C9.81129 2.56278 9.63153 2.31765 9.45178 2.03985C9.41909 1.99083 9.37007 2.02351 9.33739 2.05619C9.223 2.15424 9.12495 2.26863 9.01056 2.36668C8.94519 2.43204 8.86348 2.48107 8.79812 2.56278C8.84714 2.57912 8.87983 2.54643 8.89617 2.53009C9.01056 2.4157 9.12495 2.334 9.25568 2.23595C9.33739 2.17058 9.41909 2.17058 9.46812 2.20326C9.51714 2.25229 9.5008 2.30131 9.41909 2.38302C9.223 2.56278 9.0269 2.75887 8.81446 2.92229C8.79812 2.93863 8.78178 2.97131 8.74909 2.93863C8.71641 2.87326 8.66739 2.90595 8.63471 2.93863C8.553 3.00399 8.47129 3.0857 8.40593 3.15107C8.3569 3.20009 8.34056 3.23277 8.38958 3.29814C8.43861 3.3635 8.48763 3.3635 8.53666 3.31448C8.60202 3.24912 8.68373 3.20009 8.76544 3.13473C8.99422 2.95497 9.23934 2.77521 9.48446 2.6118C9.56616 2.56278 9.64787 2.56278 9.6969 2.6118C9.74592 2.66082 9.72958 2.72619 9.63153 2.8079C9.46812 2.95497 9.33739 3.10204 9.15763 3.21643C9.14129 3.23277 9.12495 3.24911 9.15763 3.2818C9.19031 3.2818 9.20665 3.26546 9.223 3.24912C9.37007 3.13473 9.5008 3.03668 9.64787 2.92229C9.76226 2.85692 9.84397 2.82424 9.95836 2.8896C9.95836 2.97131 9.90934 3.02034 9.86031 3.06936C9.53348 3.3635 9.223 3.67399 8.89617 3.96814C8.87983 3.98448 8.8308 4.00082 8.86349 4.0335C8.91251 4.04984 8.92885 4.01716 8.96153 3.98448C9.23934 3.7557 9.53348 3.52692 9.82763 3.33082C9.87665 3.29814 9.92568 3.26546 9.99104 3.23277C10.0401 3.20009 10.1054 3.20009 10.1381 3.24912C10.1871 3.29814 10.1545 3.34716 10.1054 3.39619C9.94202 3.59228 9.74592 3.73936 9.56616 3.91911C9.53348 3.9518 9.5008 3.93545 9.46812 3.91911C9.43543 3.90277 9.46812 3.85375 9.41909 3.85375C9.25568 3.93545 9.14129 4.08253 8.99422 4.18058C8.92885 4.2296 8.92885 4.36033 8.99422 4.4257C9.0269 4.47472 9.09226 4.45838 9.17397 4.39301C9.43543 4.14789 9.72958 3.93545 10.0074 3.70667C10.0564 3.67399 10.0891 3.64131 10.1545 3.62497C10.2035 3.62497 10.2688 3.60863 10.3015 3.67399C10.3342 3.73936 10.3015 3.77204 10.2525 3.82106C9.99104 4.0335 9.76226 4.26228 9.5008 4.45838C9.40275 4.54009 9.33739 4.63813 9.27202 4.75252C9.37007 4.73618 9.43543 4.68716 9.48446 4.63813C9.72958 4.4257 10.0074 4.26228 10.2525 4.06619C10.2852 4.04984 10.3179 4.0335 10.3506 4.0335C10.3996 4.0335 10.4323 4.04984 10.4486 4.09887C10.4649 4.14789 10.4486 4.18058 10.4159 4.19692C10.1218 4.4257 9.89299 4.7035 9.61519 4.93228C9.51714 5.01399 9.41909 5.12838 9.38641 5.27545C9.41909 5.25911 9.43543 5.22643 9.46812 5.21008C9.71324 4.99765 9.92568 4.78521 10.1871 4.60545C10.2362 4.57277 10.2688 4.54009 10.3179 4.54009C10.3506 4.54009 10.3996 4.54009 10.4159 4.58911C10.4323 4.62179 10.4323 4.67082 10.3996 4.7035C10.3832 4.71984 10.3669 4.73618 10.3506 4.76887C10.0891 5.06301 9.7786 5.30813 9.5008 5.5696C9.33739 5.71667 9.19031 5.88008 9.04324 6.07618C9.10861 6.07618 9.12495 6.0435 9.14129 6.02715C9.41909 5.81472 9.68056 5.58594 9.92568 5.34082C10.0401 5.22643 10.1545 5.11204 10.2688 4.99765C10.3015 4.96496 10.3342 4.93228 10.3669 4.91594C10.4323 4.88326 10.4813 4.8996 10.5303 4.94862C10.563 4.99765 10.5303 5.04667 10.4976 5.07935C10.2362 5.32447 9.99104 5.5696 9.72958 5.79838C9.48446 6.01081 9.3047 6.27228 9.07592 6.5174C8.99422 6.5991 8.89617 6.68081 8.84714 6.7952C8.87983 6.77886 8.91251 6.76252 8.94519 6.72984C9.223 6.50106 9.5008 6.28862 9.76226 6.05984C9.99104 5.86374 10.2688 5.70033 10.4649 5.47155C10.4976 5.43886 10.5466 5.38984 10.5957 5.38984C10.6284 5.38984 10.6774 5.40618 10.7101 5.3735C10.7427 5.34082 10.7264 5.29179 10.7264 5.24277C10.7427 4.9813 10.6774 4.71984 10.6447 4.45838C10.6284 4.27862 10.5793 4.08253 10.514 3.91911C10.4486 3.73936 10.3832 3.5596 10.2852 3.39619C10.1708 3.23277 10.1054 3.03668 9.95836 2.8896ZM3.55253 10.0471C3.58521 9.88373 3.73228 9.76934 3.81399 9.58958C3.71594 9.65495 3.66692 9.70397 3.61789 9.753C3.56887 9.80202 3.45448 9.81836 3.4218 9.78568C3.37277 9.72031 3.4218 9.67129 3.47082 9.62226C3.61789 9.44251 3.76497 9.24641 3.92838 9.06666C3.96106 9.03397 4.01009 8.98495 4.02643 8.90324C3.83033 9.083 3.68326 9.26275 3.51984 9.44251C3.43814 9.54056 3.37277 9.62226 3.24204 9.67129C3.35643 9.80202 3.48716 9.90007 3.55253 10.0471C3.58521 10.0798 3.63423 10.1288 3.66692 10.1615C3.68326 10.1779 3.6996 10.2106 3.73228 10.1942C3.76497 10.1779 3.79765 10.0798 3.84667 10.1779C3.8957 10.1452 3.92838 10.0962 3.9774 10.0471C4.02643 9.99812 4.05911 9.94909 4.10813 9.90007C4.4513 9.52422 4.79447 9.16471 5.1213 8.75617C5.13764 8.73983 5.15399 8.72349 5.17033 8.70715C5.20301 8.6908 5.23569 8.67446 5.26837 8.70715C5.30106 8.73983 5.30106 8.77251 5.28472 8.78885C5.25203 8.83788 5.21935 8.90324 5.18667 8.93593C4.97423 9.18105 4.77813 9.42617 4.54935 9.63861C4.46765 9.72031 4.3696 9.80202 4.32057 9.91641C4.28789 9.98178 4.23887 10.0635 4.1735 10.0635C4.02643 10.0798 3.99374 10.1942 3.92838 10.2759C3.91204 10.3086 3.8957 10.3413 3.92838 10.3576C3.96106 10.374 3.99374 10.3576 4.01009 10.3249C4.02643 10.2923 4.04277 10.2106 4.09179 10.2432C4.15716 10.2759 4.1735 10.2269 4.20618 10.1942C4.4513 9.94909 4.71277 9.70397 4.94155 9.44251C5.15399 9.19739 5.39911 8.98495 5.61154 8.73983C5.66057 8.6908 5.70959 8.64178 5.77496 8.6908C5.82398 8.72349 5.7913 8.78885 5.77496 8.83788C5.74228 8.93593 5.66057 8.98495 5.61154 9.06666C5.38276 9.3608 5.1213 9.63861 4.85984 9.91641C4.77813 10.0145 4.68008 10.0962 4.6474 10.2596C4.8435 10.0962 4.99057 9.93275 5.13764 9.76934C5.43179 9.45885 5.72593 9.13202 5.9874 8.77251C6.02008 8.72349 6.05276 8.6908 6.10179 8.65812C6.13447 8.62544 6.18349 8.64178 6.21618 8.67446C6.24886 8.72349 6.21618 8.73983 6.19984 8.77251C6.05276 8.96861 5.85667 9.13202 5.69325 9.32812C5.57886 9.47519 5.44813 9.60592 5.33374 9.73665C5.08862 10.0308 4.79447 10.2759 4.59838 10.6191C4.58204 10.6518 4.54935 10.6681 4.59838 10.7008C4.87618 10.4067 5.15399 10.1125 5.41545 9.81836C5.70959 9.47519 6.03642 9.14836 6.34691 8.80519C6.37959 8.77251 6.42862 8.72349 6.47764 8.6908C6.52666 8.65812 6.57569 8.67446 6.60837 8.70715C6.64105 8.75617 6.62471 8.80519 6.57569 8.83788C6.47764 8.91958 6.41227 9.01763 6.36325 9.13202C6.31423 9.23007 6.2652 9.32812 6.19984 9.39349C5.97106 9.62226 5.80764 9.90007 5.61154 10.1452C5.38276 10.4393 5.1213 10.7171 4.85984 10.9949C4.82716 11.0276 4.79447 11.0603 4.74545 11.093C4.69643 11.1257 4.6474 11.1093 4.61472 11.0766C4.58204 11.044 4.59838 11.0113 4.61472 10.9623C4.63106 10.9132 4.68008 10.8642 4.68008 10.7662C4.59838 10.8479 4.53301 10.9296 4.46765 10.9949C4.50033 11.0276 4.54935 11.0603 4.58204 11.1093C4.66374 11.2237 4.74545 11.3218 4.82716 11.4198C4.87618 11.4852 4.92521 11.4688 4.97423 11.4198C5.00691 11.3871 5.02325 11.3218 5.05594 11.3218C5.13764 11.3381 5.13764 11.3054 5.10496 11.2401C5.10496 11.2237 5.13764 11.191 5.10496 11.1747C5.0396 11.1747 4.97423 11.2564 4.90886 11.191C4.95789 11.142 5.00691 11.093 5.05594 11.0276C5.33374 10.7335 5.61154 10.4393 5.87301 10.1452C6.2652 9.72031 6.64105 9.29544 7.03325 8.87056C7.22934 8.65812 7.44178 8.47837 7.65422 8.28227C7.6869 8.24959 7.75227 8.2169 7.78495 8.24959C7.86666 8.33129 7.91568 8.28227 7.96471 8.2169C8.12812 7.98812 8.34056 7.80837 8.52031 7.57959C8.58568 7.49788 8.65105 7.43252 8.71641 7.35081C8.89617 7.15471 9.07592 6.94227 9.25568 6.74618C9.27202 6.72984 9.3047 6.69715 9.25568 6.66447C9.09226 6.7952 8.91251 6.90959 8.74909 7.05666C8.68373 7.12203 8.56934 7.12203 8.50397 7.20374C8.40593 7.33447 8.29154 7.44886 8.17715 7.57959C8.01373 7.77569 7.85032 7.97178 7.63788 8.11886C7.26203 8.39666 6.83715 8.57641 6.36325 8.6091C6.10179 8.62544 5.82398 8.64178 5.56252 8.56007C5.46447 8.52739 5.38276 8.49471 5.28472 8.46202C5.13764 8.413 4.99057 8.39666 4.82716 8.36398C4.66374 8.33129 4.66374 8.33129 4.56569 8.44568C4.54935 8.46202 4.53301 8.47837 4.51667 8.51105C4.43496 8.6091 4.33691 8.72349 4.25521 8.82154C4.23887 8.83788 4.22252 8.85422 4.25521 8.87056C4.28789 8.85422 4.32057 8.83788 4.33691 8.80519C4.40228 8.72349 4.50033 8.65812 4.58204 8.57641C4.66374 8.51105 4.69643 8.51105 4.72911 8.62544C4.72911 8.64178 4.74545 8.64178 4.76179 8.65812C4.81082 8.6091 4.85984 8.56007 4.90886 8.54373C4.97423 8.51105 5.02325 8.54373 5.02325 8.6091C5.02325 8.64178 5.00691 8.67446 4.99057 8.70715C4.74545 8.96861 4.51667 9.24641 4.28789 9.52422C4.18984 9.63861 4.09179 9.753 4.01009 9.88373C3.9774 9.93275 3.94472 9.98178 3.86301 10.0145C4.09179 9.62226 4.38594 9.32812 4.61472 9.00129C4.50033 8.95227 4.51667 9.06666 4.48399 9.09934C4.35326 9.24641 4.18984 9.39349 4.07545 9.5569C4.01009 9.65495 3.91204 9.73665 3.84667 9.8347C3.74862 9.98178 3.66692 10.0471 3.55253 10.0471ZM6.03642 8.46202C6.19984 8.44568 6.37959 8.42934 6.55935 8.39666C6.83715 8.36398 7.08227 8.24959 7.31105 8.11886C7.52349 7.98812 7.70325 7.82471 7.86666 7.62861C8.04641 7.43252 8.22617 7.22008 8.38958 7.00764C8.61836 6.72984 8.66739 6.37032 8.78178 6.0435C8.79812 6.01081 8.78178 5.97813 8.79812 5.94545C8.8308 5.63496 8.86348 5.32447 8.84714 5.01399C8.8308 4.71984 8.79812 4.44204 8.63471 4.19692C8.61836 4.18058 8.61836 4.16423 8.61836 4.13155C8.58568 3.91911 8.47129 3.72302 8.3569 3.5596C8.20983 3.34716 8.03007 3.13473 7.83398 2.97131C7.75227 2.90595 7.65422 2.87326 7.57251 2.8079C7.45812 2.70985 7.32739 2.64448 7.19666 2.57912C6.86983 2.4157 6.543 2.31766 6.18349 2.26863C6.02008 2.25229 5.85667 2.21961 5.69325 2.23595C5.0396 2.31765 4.4513 2.57912 3.91204 2.97131C3.83033 3.02034 3.74862 3.06936 3.66692 3.15107C3.43814 3.41253 3.27472 3.70667 3.17667 4.01716C3.14399 4.11521 3.11131 4.19692 3.06228 4.27862C2.99692 4.37667 2.96424 4.49106 2.98058 4.60545C2.99692 4.7035 2.98058 4.78521 2.9479 4.88326C2.86619 5.25911 2.84985 5.63496 2.98058 6.01081C3.09497 6.33764 3.24204 6.64813 3.35643 6.97496C3.37277 7.00764 3.38911 7.04032 3.40545 7.05666C3.53619 7.1874 3.65058 7.35081 3.78131 7.49788C4.02643 7.743 4.27155 7.98812 4.59838 8.11886C4.87618 8.23324 5.17033 8.29861 5.46447 8.34763C5.54618 8.36398 5.5952 8.413 5.67691 8.42934C5.7913 8.47837 5.90569 8.42934 6.03642 8.46202ZM8.84714 7.43252C8.91251 7.44886 8.92885 7.39983 8.96153 7.38349C9.40275 7.00764 9.84397 6.63179 10.3015 6.25593C10.3179 6.23959 10.3342 6.22325 10.3669 6.20691C10.4159 6.17423 10.4813 6.17423 10.514 6.22325C10.5466 6.27228 10.5303 6.3213 10.4813 6.35398C10.4486 6.37032 10.4323 6.38667 10.3996 6.41935C10.0237 6.71349 9.71324 7.05666 9.38641 7.41617C9.10861 7.71032 8.8308 8.02081 8.56934 8.34763C8.53666 8.39666 8.48763 8.44568 8.52031 8.51105C8.58568 8.49471 8.61836 8.44568 8.66739 8.413C8.78178 8.29861 8.89617 8.20056 9.01056 8.08617C9.35373 7.75934 9.6969 7.44886 10.0401 7.13837C10.0727 7.10569 10.0891 7.08935 10.1218 7.073C10.1708 7.05666 10.2198 7.04032 10.2525 7.08935C10.2688 7.12203 10.2688 7.17105 10.2198 7.20374C10.0727 7.31813 9.95836 7.4652 9.82763 7.59593C9.66421 7.77569 9.48446 7.9391 9.33739 8.1352C9.14129 8.38032 8.92885 8.6091 8.73275 8.83788C8.63471 8.96861 8.53666 9.083 8.45495 9.23007C8.65105 9.083 8.8308 8.91958 9.0269 8.75617C9.20665 8.59276 9.38641 8.44568 9.58251 8.28227C9.6969 8.20056 9.74592 8.2169 9.81129 8.33129C9.87665 8.28227 9.89299 8.2169 9.92568 8.15154C10.0564 7.98812 10.1708 7.79203 10.2362 7.59593C10.2852 7.43252 10.3669 7.2691 10.4323 7.10569C10.4976 6.92593 10.563 6.74618 10.5957 6.55008C10.6284 6.40301 10.6284 6.27228 10.6774 6.1252C10.7264 5.97813 10.7427 5.79838 10.7591 5.63496C10.7591 5.55325 10.7264 5.53691 10.661 5.58594C10.6447 5.60228 10.6284 5.61862 10.612 5.61862C10.3342 5.83106 10.1054 6.07618 9.87665 6.3213C9.6969 6.50106 9.53348 6.68081 9.35373 6.87691C9.19031 7.05666 9.01056 7.23642 8.84714 7.43252ZM5.87301 1.10839C5.84032 1.10839 5.84032 1.10839 5.82398 1.10839C5.5135 1.35351 5.21935 1.59863 4.92521 1.8601C4.79447 1.97449 4.66374 2.10522 4.51667 2.21961C4.46765 2.25229 4.43496 2.28497 4.3696 2.23595C4.33691 2.20326 4.30423 2.21961 4.27155 2.23595C4.23887 2.26863 4.18984 2.30131 4.15716 2.35034C4.09179 2.4157 4.01009 2.48107 3.94472 2.54643C3.91204 2.57912 3.87935 2.57912 3.84667 2.54643C3.81399 2.51375 3.81399 2.48107 3.84667 2.44839C3.99374 2.28497 4.15716 2.15424 4.32057 2.00717C4.41862 1.92546 4.51667 1.82741 4.59838 1.72936C4.71277 1.59863 4.81082 1.4679 4.95789 1.36985C5.02325 1.32083 5.05594 1.2718 5.07228 1.20644C4.85984 1.35351 4.6474 1.50058 4.4513 1.664C4.33691 1.76205 4.22252 1.84375 4.12448 1.95814C3.8957 2.20326 3.63423 2.44839 3.37277 2.66082C3.34009 2.69351 3.30741 2.72619 3.34009 2.77521C3.40545 2.70985 3.47082 2.67717 3.53619 2.6118C3.55253 2.57912 3.58521 2.56278 3.61789 2.54643C3.66692 2.51375 3.6996 2.51375 3.73228 2.56278C3.76497 2.6118 3.74862 2.64448 3.71594 2.67717C3.58521 2.8079 3.45448 2.92229 3.34009 3.06936C3.24204 3.18375 3.12765 3.2818 3.01326 3.37985C2.99692 3.39619 2.96424 3.42887 2.99692 3.46155C3.06228 3.41253 3.12765 3.34716 3.2257 3.37985C3.30741 3.41253 3.32375 3.3635 3.35643 3.29814C3.45448 3.13473 3.58521 2.97131 3.76497 2.87326C3.8957 2.79156 4.02643 2.70985 4.15716 2.62814C4.28789 2.54643 4.41862 2.44839 4.56569 2.39936C4.66374 2.36668 4.77813 2.334 4.81082 2.20326C4.82716 2.17058 4.85984 2.15424 4.89252 2.1379C4.92521 2.12156 4.95789 2.10522 4.97423 2.07253C5.15399 1.82741 5.39911 1.64766 5.62789 1.43522C5.69325 1.32083 5.7913 1.22278 5.87301 1.10839ZM6.00374 11.4525C6.02008 11.4688 6.02008 11.4688 6.03642 11.4852C6.24886 11.2564 6.4613 11.0276 6.67374 10.7988C7.01691 10.4557 7.36008 10.0798 7.70325 9.73665C8.0791 9.34446 8.43861 8.96861 8.78178 8.56007C8.81446 8.52739 8.84714 8.49471 8.86349 8.44568C8.81446 8.44568 8.79812 8.47837 8.78178 8.49471C8.58568 8.67446 8.40593 8.87056 8.12812 8.91958C8.0791 8.93593 8.04641 8.96861 8.01373 9.01763C7.81763 9.23007 7.62154 9.44251 7.42544 9.67129C7.27837 9.85104 7.09861 9.99812 6.95154 10.1779C6.72276 10.4557 6.51032 10.7498 6.29788 11.0276C6.21618 11.1584 6.11813 11.3054 6.00374 11.4525ZM8.99422 7.62861C8.91251 7.62861 8.87983 7.64495 8.84714 7.67764C8.76544 7.79203 8.65105 7.85739 8.553 7.9391C8.37324 8.05349 8.22617 8.2169 8.0791 8.38032C7.86666 8.64178 7.63788 8.90324 7.4091 9.16471C7.213 9.39348 7.03325 9.62226 6.82081 9.8347C6.70642 9.96543 6.60837 10.1125 6.49398 10.2432C6.33057 10.4067 6.23252 10.6191 6.0691 10.7825C5.95471 10.8969 5.85667 11.0276 5.75862 11.1747C5.70959 11.2564 5.64423 11.3218 5.64423 11.4198C6.75544 10.1615 7.86666 8.90324 8.99422 7.62861ZM9.74592 8.38032C9.58251 8.56007 9.43543 8.72349 9.28836 8.90324C8.91251 9.32812 8.53666 9.753 8.22617 10.2269C8.19349 10.2923 8.14446 10.3413 8.17715 10.423C8.20983 10.472 8.17715 10.521 8.12812 10.5701C7.99739 10.7171 7.86666 10.8642 7.73593 11.0113C7.63788 11.1257 7.53983 11.2401 7.42544 11.3708C7.49081 11.3708 7.52349 11.3054 7.57251 11.3218C7.6869 11.3381 7.73593 11.2727 7.78495 11.2074C7.96471 10.9623 8.14446 10.7171 8.32422 10.4557C8.53666 10.1615 8.73275 9.86739 8.94519 9.57324C9.20665 9.23007 9.46812 8.87056 9.68056 8.49471C9.72958 8.47837 9.76226 8.44568 9.74592 8.38032ZM8.91251 9.083C8.78178 9.11568 8.70007 9.21373 8.60202 9.29544C8.43861 9.42617 8.27519 9.60592 8.04641 9.62226C8.01373 9.62226 7.99739 9.65495 7.96471 9.67129C7.83398 9.80202 7.71959 9.94909 7.58886 10.0798C7.34373 10.3413 7.1313 10.6027 6.86983 10.8315C6.85349 10.8479 6.83715 10.8479 6.83715 10.8642C6.78813 11.0276 6.64105 11.142 6.57569 11.2891C6.47764 11.4852 6.34691 11.6486 6.21618 11.812C6.18349 11.861 6.15081 11.8937 6.15081 11.9754C6.23252 11.8937 6.29788 11.812 6.36325 11.7466C6.55935 11.5015 6.75544 11.2564 6.96788 11.0276C7.27837 10.6681 7.62154 10.3249 7.93202 9.98178C7.99739 9.91641 8.04641 9.8347 8.11178 9.76934C8.14446 9.73665 8.20983 9.68763 8.24251 9.73665C8.34056 9.81836 8.37324 9.76934 8.42227 9.68763C8.45495 9.63861 8.48763 9.60592 8.52031 9.57324C8.65105 9.40983 8.78178 9.24641 8.91251 9.083ZM3.17667 8.16788C3.09497 8.18422 3.06228 8.23324 3.0296 8.26593C2.88253 8.42934 2.78448 8.62544 2.62107 8.78885C2.58838 8.82154 2.58838 8.83788 2.62107 8.87056C2.71912 8.98495 2.83351 9.11568 2.91521 9.24641C2.93155 9.27909 2.96424 9.29544 2.99692 9.27909C3.04594 9.24641 3.09497 9.21373 3.14399 9.16471C3.17667 9.13202 3.14399 9.09934 3.14399 9.06666C3.12765 9.01763 3.16033 9.00129 3.19302 8.96861C3.27472 8.8869 3.34009 8.78885 3.4218 8.70715C3.60155 8.49471 3.78131 8.28227 3.91204 8.05349C3.92838 8.02081 3.96106 7.97178 3.8957 7.9391C3.84667 7.90642 3.79765 7.87373 3.74862 7.9391C3.73228 7.97178 3.71594 7.98812 3.68326 8.02081C3.51984 8.2169 3.40545 8.44568 3.25838 8.65812C3.17667 8.77251 3.07863 8.85422 2.96424 8.93593C3.07863 8.77251 3.17668 8.62544 3.29106 8.46202C3.27472 8.46202 3.27472 8.44568 3.25838 8.44568C3.17667 8.54373 3.06228 8.62544 3.01326 8.73983C2.98058 8.80519 2.9479 8.87056 2.88253 8.90324C2.83351 8.93593 2.76814 8.93593 2.73546 8.90324C2.70277 8.87056 2.71912 8.82154 2.7518 8.78885C2.84985 8.62544 2.96424 8.47837 3.07863 8.33129C3.11131 8.28227 3.16033 8.24959 3.17667 8.16788ZM5.5135 0.324003C5.38276 0.356686 5.26837 0.373027 5.13764 0.40571C5.0396 0.422052 4.95789 0.438393 4.92521 0.552783C4.90886 0.601807 4.8435 0.63449 4.79447 0.683514C4.53301 0.912294 4.27155 1.14107 4.01009 1.36985C3.73228 1.61497 3.45448 1.8601 3.19302 2.12156C3.11131 2.20326 3.01326 2.28497 2.96424 2.39936C3.09497 2.30131 3.20936 2.18692 3.32375 2.08888C3.61789 1.81107 3.92838 1.53327 4.23887 1.25546C4.30423 1.1901 4.3696 1.10839 4.48399 1.17376C4.50033 1.17376 4.51667 1.17376 4.53301 1.15742C4.71277 1.04303 4.85984 0.895952 5.0396 0.781563C5.17033 0.699856 5.28472 0.536442 5.43179 0.454734C5.46447 0.422052 5.49715 0.389369 5.5135 0.324003ZM5.05594 1.38619C5.17033 1.28815 5.26837 1.22278 5.36642 1.14107C5.39911 1.10839 5.41545 1.04303 5.46447 1.04303C5.56252 1.02668 5.5952 0.895952 5.70959 0.879611C5.80764 0.716197 5.9874 0.63449 6.11813 0.503759C6.15081 0.471076 6.21618 0.422052 6.2652 0.471076C6.33057 0.536442 6.37959 0.503759 6.42862 0.471076C6.543 0.422052 6.64105 0.438393 6.64105 0.5201C6.64105 0.618149 6.72276 0.601807 6.7391 0.585466C6.83715 0.552783 6.91886 0.487417 6.98422 0.40571C6.95154 0.373027 6.91886 0.373027 6.88617 0.373027C6.75544 0.373027 6.60837 0.356686 6.4613 0.340345C6.31423 0.307662 6.15081 0.307662 6.00374 0.307662C5.88935 0.307662 5.82398 0.356686 5.74228 0.40571C5.67691 0.454734 5.67691 0.487417 5.72593 0.536442C5.80764 0.650831 5.80764 0.667173 5.70959 0.74888C5.5135 0.912294 5.33374 1.09205 5.15398 1.2718C5.1213 1.28815 5.07228 1.30449 5.05594 1.38619ZM6.0691 13.2991C5.88935 13.2501 5.87301 13.2174 5.95471 13.0703C6.03642 12.9069 6.15081 12.7762 6.2652 12.6291C6.33057 12.5474 6.37959 12.4493 6.44496 12.3676C6.33057 12.433 6.24886 12.531 6.16715 12.6127C6.11813 12.6781 6.05276 12.7108 5.9874 12.7598C5.93837 12.7925 5.90569 12.7762 5.87301 12.7435C5.84032 12.7108 5.85667 12.6781 5.88935 12.6454C5.90569 12.6127 5.93837 12.5964 5.95471 12.5637C6.03642 12.433 6.15081 12.3186 6.21618 12.1552C6.00374 12.3513 5.84032 12.6127 5.57886 12.7762C5.72593 13.0213 5.80764 13.2664 5.90569 13.5442C5.97106 13.4625 6.02008 13.3971 6.0691 13.2991ZM5.64423 11.7303C5.48081 11.7957 5.39911 11.9591 5.28472 12.0571C5.23569 12.0898 5.23569 12.1388 5.26837 12.1879C5.33374 12.3186 5.41545 12.4493 5.49715 12.5964C5.66057 12.384 5.80764 12.1715 5.95471 11.9591C6.10179 11.7466 6.28154 11.5506 6.42862 11.3054C6.34691 11.3381 6.31423 11.3708 6.28154 11.4035C6.08545 11.6486 5.85667 11.861 5.67691 12.1225C5.64423 12.1715 5.5952 12.2042 5.56252 12.2369C5.5135 12.2696 5.44813 12.2696 5.41545 12.2369C5.36642 12.1879 5.39911 12.1552 5.43179 12.1062C5.49715 11.9918 5.57886 11.861 5.64423 11.7303ZM6.96788 0.683514C6.86983 0.716197 6.82081 0.765221 6.77178 0.814245C6.49398 1.05937 6.21618 1.30449 5.95471 1.54961C5.82398 1.664 5.70959 1.77839 5.57886 1.89278C5.48081 1.97449 5.46447 1.97449 5.35008 1.90912C5.33374 1.89278 5.30106 1.87644 5.28472 1.89278C5.21935 1.97449 5.10496 2.00717 5.05594 2.1379C5.21935 2.15424 5.36642 2.07253 5.52984 2.03985C5.54618 2.03985 5.56252 2.02351 5.57886 2.00717C5.77496 1.77839 6.02008 1.61497 6.23252 1.40254C6.36325 1.2718 6.55935 1.1901 6.64105 1.01034C6.65739 0.994001 6.67374 0.961318 6.69008 0.944977C6.85349 0.944977 6.90252 0.830587 6.96788 0.683514ZM5.1213 11.9264C5.3174 11.6813 6.02008 10.6845 6.05276 10.5864C5.93837 10.6845 5.84032 10.7825 5.75862 10.8806C5.56252 11.1093 5.35008 11.3218 5.15398 11.5506C5.10496 11.5996 5.00691 11.6486 5.00691 11.714C4.99057 11.7793 5.07228 11.8447 5.1213 11.9264ZM2.65375 5.01399C2.7518 4.9813 2.76814 4.8996 2.78448 4.81789C2.81716 4.58911 2.81716 4.34399 2.93155 4.13155C2.9479 4.11521 2.96424 4.08253 2.93155 4.04984C2.89887 4.04984 2.88253 4.08253 2.84985 4.11521C2.73546 4.2296 2.63741 4.34399 2.50668 4.4257C2.45765 4.45838 2.42497 4.49106 2.44131 4.55643C2.5557 4.52375 2.60473 4.54009 2.62107 4.57277C2.65375 4.63813 2.58838 4.68716 2.5557 4.71984C2.50668 4.78521 2.42497 4.81789 2.39229 4.91594C2.53936 4.86691 2.62107 4.88326 2.65375 5.01399ZM4.1735 10.7335C4.32057 10.5374 4.46765 10.3576 4.59838 10.1452C4.72911 9.94909 4.89252 9.78568 5.0396 9.57324C4.99057 9.58958 4.99057 9.58958 4.97423 9.58958C4.72911 9.8347 4.48399 10.1125 4.18984 10.3086C4.12448 10.3576 4.09179 10.4393 4.04277 10.5047C4.01009 10.5374 4.09179 10.6191 4.12448 10.6845C4.14082 10.7008 4.14082 10.7171 4.1735 10.7335ZM5.70959 9.72031C5.69325 9.73665 5.67691 9.753 5.66057 9.76934C5.46447 9.96543 5.30106 10.1942 5.07228 10.374C4.95789 10.4557 4.79447 10.7662 4.74545 10.9132C4.95789 10.7335 5.64423 9.91641 5.70959 9.72031ZM3.24204 7.84105C3.35643 7.79203 3.40545 7.69398 3.5035 7.64495C3.55253 7.62861 3.51984 7.57959 3.5035 7.54691C3.4218 7.44886 3.37277 7.33447 3.29106 7.23642C3.2257 7.15471 3.2257 7.04032 3.12765 6.95861C3.06229 7.04032 2.99692 7.12203 2.93155 7.23642C2.99692 7.22008 3.0296 7.20374 3.06228 7.18739C3.11131 7.17105 3.14399 7.1874 3.17667 7.22008C3.2257 7.2691 3.2257 7.31813 3.17667 7.38349C3.14399 7.41617 3.11131 7.4652 3.09497 7.49788C3.07863 7.53056 3.0296 7.56325 3.04594 7.62861C3.11131 7.57959 3.16033 7.54691 3.20936 7.51422C3.25838 7.48154 3.30741 7.44886 3.35643 7.49788C3.40545 7.54691 3.38911 7.59593 3.35643 7.64495C3.29106 7.71032 3.24204 7.75934 3.24204 7.84105ZM7.19666 9.14836C7.18032 9.13202 7.18032 9.13202 7.16398 9.11568C7.14764 9.13202 7.1313 9.13202 7.11495 9.14836C6.78813 9.50787 6.44496 9.85104 6.11813 10.1779C6.03642 10.2596 5.97106 10.3413 5.88935 10.423C5.85667 10.4557 5.85667 10.4884 5.88935 10.5537C6.31422 10.0798 6.78813 9.65495 7.19666 9.14836ZM2.45765 6.14154C2.39229 6.15789 2.37595 6.20691 2.32692 6.23959C2.0818 6.46837 1.8857 6.72984 1.67327 6.97496C1.64058 7.00764 1.6079 7.04032 1.57522 7.073C1.52619 7.12203 1.47717 7.02398 1.44449 7.08935C1.47717 7.15471 1.47717 7.23642 1.54253 7.30178C1.55888 7.28544 1.57522 7.28544 1.59156 7.2691C1.72229 7.05666 1.8857 6.87691 2.04912 6.68081C2.14717 6.56642 2.22887 6.43569 2.34326 6.35398C2.42497 6.30496 2.45765 6.23959 2.45765 6.14154ZM3.73228 9.00129C3.96106 8.75617 4.20618 8.52739 4.43496 8.28227C4.40228 8.26593 4.35326 8.23324 4.30423 8.2169C4.15716 8.51105 3.8957 8.72349 3.73228 9.00129ZM7.58886 1.664C7.36008 1.84375 7.14764 2.03985 6.91886 2.21961C6.9352 2.25229 6.95154 2.25229 6.96788 2.26863C7.09861 2.31766 7.08227 2.30131 7.18032 2.20326C7.29471 2.07253 7.37642 1.92546 7.52349 1.84375C7.58885 1.79473 7.58886 1.74571 7.58886 1.664ZM3.0296 7.85739C2.94789 7.84105 2.91521 7.89008 2.89887 7.92276C2.78448 8.10251 2.62107 8.24959 2.49034 8.413C2.44131 8.47837 2.39229 8.52739 2.31058 8.52739C2.3596 8.57641 2.39229 8.64178 2.45765 8.65812C2.63741 8.39666 2.81716 8.11885 3.0296 7.85739ZM6.24886 15.0476C6.31423 14.7861 6.36325 14.541 6.42862 14.2959C6.33057 14.394 6.2652 14.492 6.21618 14.6064C6.19983 14.6554 6.13447 14.6881 6.16715 14.7535C6.18349 14.8352 6.18349 14.9332 6.24886 15.0476ZM6.83715 12.4984C7.01691 12.5474 7.01691 12.5474 7.08227 12.4166C7.1313 12.3023 7.18032 12.1879 7.24569 12.0898C7.27837 12.0408 7.31105 11.9918 7.29471 11.9264C7.11495 12.1062 7.00056 12.3186 6.83715 12.4984ZM2.70277 5.34082C2.62107 5.3735 2.60473 5.42252 2.57204 5.47155C2.53936 5.48789 2.53936 5.52057 2.57204 5.55325C2.65375 5.61862 2.60473 5.68399 2.5557 5.74935C2.52302 5.79838 2.47399 5.83106 2.45765 5.89642C2.53936 5.83106 2.62107 5.81472 2.73546 5.8474C2.68643 5.68399 2.70277 5.52057 2.70277 5.34082ZM2.76814 6.01081C2.7518 6.01081 2.7518 6.01081 2.73546 6.01081C2.68643 6.1252 2.5557 6.17423 2.50668 6.30496C2.60473 6.28862 2.65375 6.19057 2.73546 6.25593C2.81716 6.3213 2.7518 6.40301 2.73546 6.46837C2.88253 6.37032 2.88253 6.37032 2.84985 6.23959C2.81716 6.15789 2.78448 6.09252 2.76814 6.01081ZM1.86936 5.63496C1.70595 5.83106 1.55888 5.99447 1.4118 6.15789C1.37912 6.20691 1.34644 6.23959 1.31375 6.28862C1.29741 6.30496 1.29741 6.33764 1.3301 6.33764C1.34644 6.35398 1.36278 6.33764 1.37912 6.33764C1.44449 6.23959 1.55888 6.19057 1.62424 6.07618C1.67327 5.99447 1.72229 5.91276 1.804 5.86374C1.83668 5.81472 1.85302 5.74935 1.86936 5.63496ZM1.3301 4.32765C1.34644 4.32765 1.34644 4.34399 1.36278 4.34399C1.47717 4.18058 1.64058 4.04984 1.75497 3.87009C1.70595 3.90277 1.65692 3.93545 1.62424 3.96814C1.6079 3.98448 1.57522 4.00082 1.54253 3.98448C1.44449 3.9518 1.4118 3.9518 1.39546 4.0335C1.36278 4.13155 1.34644 4.2296 1.3301 4.32765ZM7.6869 0.650831C7.57251 0.585466 7.45812 0.536442 7.32739 0.536442C7.34373 0.585466 7.39276 0.569124 7.42544 0.601807C7.47447 0.650831 7.49081 0.683514 7.44178 0.732538C7.4091 0.765221 7.39276 0.781563 7.36007 0.814245C7.27837 0.895952 7.18032 0.961318 7.1313 1.07571C7.18032 1.02668 7.27837 1.02668 7.31105 0.961318C7.4091 0.814245 7.55617 0.74888 7.6869 0.650831ZM2.06546 5.83106C1.70595 6.17423 1.4118 6.5174 1.39546 6.66447C1.62424 6.37032 1.8857 6.1252 2.06546 5.83106ZM6.47764 13.3971C6.57569 13.3808 6.65739 13.3971 6.69008 13.2991C6.7391 13.1683 6.78813 13.0376 6.83715 12.8905C6.82081 12.8905 6.82081 12.8742 6.80447 12.8742C6.72276 13.054 6.55935 13.1683 6.47764 13.3971ZM7.63788 1.35351C7.71959 1.38619 7.75227 1.35351 7.78495 1.33717C7.83398 1.28815 7.883 1.25546 7.93202 1.22278C8.03007 1.15741 8.11178 1.07571 8.19349 1.01034C8.22617 0.97766 8.24251 0.944977 8.19349 0.912294C8.1608 0.879611 8.14446 0.895952 8.11178 0.928635C7.94837 1.05937 7.80129 1.20644 7.63788 1.35351ZM6.51032 1.41888C6.2652 1.61497 6.0691 1.81107 5.84032 2.02351C5.92203 2.03985 5.97106 2.03985 6.02008 1.97449C6.13447 1.82741 6.24886 1.69668 6.39593 1.58229C6.44496 1.56595 6.51032 1.53327 6.51032 1.41888ZM1.91839 6.28862C1.8857 6.33764 1.85302 6.37032 1.83668 6.38667C1.68961 6.53374 1.6079 6.72984 1.42814 6.82788C1.39546 6.84422 1.39546 6.89325 1.42814 6.90959C1.46083 6.94227 1.47717 6.90959 1.49351 6.89325C1.6079 6.74618 1.72229 6.61545 1.85302 6.48471C1.90205 6.46837 1.96741 6.41935 1.91839 6.28862ZM7.52349 1.10839C7.6869 1.02668 7.83398 0.912294 7.98105 0.781563C7.89934 0.732538 7.83398 0.667173 7.73593 0.683514C7.80129 0.74888 7.78495 0.814245 7.73593 0.86327C7.65422 0.944977 7.58885 1.02668 7.52349 1.10839ZM3.45448 9.13202C3.27472 9.18105 3.20936 9.40983 2.98058 9.3608C3.04594 9.44251 3.09497 9.49153 3.16033 9.54056C3.25838 9.40983 3.37277 9.29544 3.45448 9.13202ZM4.09179 8.08617C3.96106 8.2169 3.81399 8.44568 3.79765 8.52739C3.94472 8.42934 4.04277 8.26593 4.20618 8.18422C4.1735 8.11885 4.14082 8.10251 4.09179 8.08617ZM9.01056 3.15107C8.87983 3.24912 8.7491 3.3635 8.61836 3.46155C8.58568 3.49424 8.58568 3.52692 8.61836 3.5596C8.65105 3.59228 8.68373 3.5596 8.70007 3.54326C8.8308 3.42887 8.94519 3.33082 9.01056 3.15107ZM6.9352 1.48424C6.69008 1.64766 6.51032 1.87644 6.28154 2.05619C6.33057 2.10522 6.36325 2.07253 6.39593 2.05619C6.55935 1.8601 6.75544 1.68034 6.9352 1.48424ZM9.41909 4.91594C9.37007 4.8996 9.33739 4.93228 9.32104 4.96496C9.28836 4.99765 9.23934 5.01399 9.19031 5.03033C9.05958 5.06301 9.05958 5.06301 9.07592 5.19374C9.07592 5.22643 9.05958 5.25911 9.10861 5.29179C9.20665 5.1774 9.32104 5.06301 9.41909 4.91594ZM7.01691 1.79473C6.90252 1.84375 6.70642 2.00717 6.62471 2.1379C6.67374 2.15424 6.70642 2.20327 6.7391 2.10522C6.80447 1.97449 6.91886 1.90912 7.01691 1.79473ZM7.29471 2.38302C7.34373 2.4157 7.39276 2.46473 7.42544 2.43204C7.50715 2.334 7.62154 2.25229 7.65422 2.12156C7.52349 2.20326 7.4091 2.30131 7.29471 2.38302ZM6.55935 13.6586C6.47764 13.7566 6.39593 13.8383 6.36325 13.9527C6.34691 13.9854 6.37959 14.0018 6.39593 14.0018C6.42862 14.0181 6.44496 14.0344 6.4613 13.9854C6.51032 13.8874 6.55935 13.8057 6.55935 13.6586ZM3.14399 3.57594C3.04594 3.60863 3.01326 3.69033 2.9479 3.73936C2.91521 3.7557 2.88253 3.78838 2.93155 3.83741C2.98058 3.87009 3.01326 3.88643 3.04594 3.82106C3.07863 3.73936 3.12765 3.67399 3.14399 3.57594ZM8.96153 3.67399C8.89617 3.70667 8.84714 3.73936 8.79812 3.7557C8.76544 3.77204 8.73275 3.77204 8.74909 3.82106C8.74909 3.85375 8.76544 3.87009 8.79812 3.88643C8.8308 3.90277 8.86348 3.87009 8.87983 3.85375C8.91251 3.80472 8.94519 3.7557 8.96153 3.67399ZM2.50668 3.11838C2.3596 3.20009 2.26156 3.31448 2.22887 3.41253C2.3596 3.33082 2.40863 3.29814 2.50668 3.11838ZM8.43861 2.67717C8.34056 2.75887 8.24251 2.84058 8.1608 2.90595C8.14446 2.92229 8.12812 2.93863 8.14446 2.95497C8.1608 2.97131 8.19349 2.97131 8.20983 2.95497C8.27519 2.87326 8.38958 2.8079 8.43861 2.67717ZM2.81716 6.89325C2.88253 6.84423 2.96424 6.81154 3.01326 6.72984C3.0296 6.69715 3.01326 6.68081 2.99692 6.66447C2.98058 6.64813 2.9479 6.66447 2.9479 6.68081C2.89887 6.74618 2.83351 6.81154 2.81716 6.89325ZM6.0691 14.2305C6.0691 14.2959 6.0691 14.3613 6.11813 14.4103C6.16715 14.3776 6.19983 14.3286 6.21618 14.2632C6.16715 14.2469 6.11813 14.2469 6.0691 14.2305ZM2.17985 6.0435C2.03278 6.19057 2.03278 6.19057 2.06546 6.28862C2.09814 6.19057 2.19619 6.17423 2.17985 6.0435ZM6.13447 13.6259C6.0691 13.6423 6.03642 13.724 5.95471 13.724C5.92203 13.724 5.93837 13.7893 5.95471 13.8057C5.9874 13.8383 6.00374 13.8057 6.02008 13.7893C6.05276 13.7403 6.08544 13.6749 6.13447 13.6259ZM2.16351 3.47789C2.09814 3.51058 2.03278 3.54326 1.98375 3.65765C2.09814 3.60863 2.14717 3.5596 2.16351 3.47789ZM2.32692 4.57277C2.21253 4.60545 2.17985 4.68716 2.14717 4.75252C2.21253 4.71984 2.2779 4.67082 2.32692 4.57277ZM2.0818 3.87009C2.16351 3.85375 2.19619 3.80472 2.22887 3.72302C2.13082 3.7557 2.09814 3.78838 2.0818 3.87009ZM3.47082 7.9391C3.58521 7.84105 3.58521 7.84105 3.61789 7.743C3.55253 7.80837 3.51984 7.85739 3.47082 7.9391ZM2.19619 5.32447C2.14717 5.35716 2.11448 5.38984 2.0818 5.45521C2.19619 5.43886 2.21253 5.38984 2.19619 5.32447ZM6.03642 14.1488C6.08545 14.1162 6.11813 14.0998 6.11813 14.0344C6.0691 14.0508 6.00374 14.0508 6.03642 14.1488ZM2.81716 2.54643C2.86619 2.53009 2.91521 2.49741 2.9479 2.4157C2.86619 2.44839 2.83351 2.49741 2.81716 2.54643ZM1.6079 5.60228C1.65692 5.60228 1.67327 5.58594 1.68961 5.5696C1.70595 5.55325 1.72229 5.53691 1.68961 5.52057C1.68961 5.52057 1.65692 5.52057 1.64058 5.53691C1.62424 5.53691 1.6079 5.55325 1.6079 5.60228ZM2.21253 5.71667C2.29424 5.68399 2.32692 5.6513 2.29424 5.58594C2.24521 5.60228 2.24521 5.6513 2.21253 5.71667ZM9.14129 5.70033C9.09226 5.71667 9.05958 5.73301 9.05958 5.79838C9.09226 5.78203 9.12495 5.76569 9.14129 5.70033ZM2.2779 6.02715C2.32692 6.02715 2.31058 5.97813 2.32692 5.96179C2.32692 5.94545 2.32692 5.92911 2.31058 5.92911C2.26156 5.92911 2.24521 5.96179 2.24521 6.01081C2.24521 6.01081 2.26156 6.01081 2.2779 6.02715ZM2.39229 3.52692C2.32692 3.54326 2.32692 3.59228 2.29424 3.65765C2.3596 3.64131 2.39229 3.59228 2.39229 3.52692ZM2.67009 2.1379C2.65375 2.1379 2.65375 2.1379 2.67009 2.1379C2.63741 2.17058 2.60473 2.18692 2.62107 2.21961C2.62107 2.21961 2.63741 2.23595 2.65375 2.21961C2.68643 2.21961 2.68643 2.18692 2.68643 2.15424C2.67009 2.15424 2.67009 2.15424 2.67009 2.1379ZM2.42497 3.00399C2.42497 2.98765 2.40863 2.97131 2.40863 2.97131C2.37595 2.97131 2.37595 2.98765 2.37595 3.00399C2.37595 3.02034 2.39229 3.03668 2.39229 3.03668C2.40863 3.05302 2.42497 3.03668 2.42497 3.00399ZM5.87301 9.54056C5.7913 9.57324 5.77496 9.60592 5.77496 9.67129C5.82398 9.65495 5.84032 9.62226 5.87301 9.54056ZM1.6079 4.39301C1.65692 4.37667 1.67327 4.34399 1.68961 4.29497C1.64058 4.32765 1.59156 4.32765 1.6079 4.39301ZM1.95107 5.60228C1.98375 5.60228 2.00009 5.58594 2.00009 5.55325C2.00009 5.53691 2.00009 5.50423 1.96741 5.52057C1.93473 5.52057 1.91839 5.55325 1.91839 5.5696C1.91839 5.60228 1.95107 5.60228 1.95107 5.60228ZM1.78766 7.43252C1.78766 7.41617 1.78766 7.41617 1.78766 7.43252C1.77131 7.41617 1.77131 7.41617 1.77131 7.41617C1.73863 7.44886 1.70595 7.4652 1.70595 7.53056C1.73863 7.49788 1.77131 7.4652 1.78766 7.43252ZM4.41862 9.06666C4.41862 9.05031 4.41862 9.03397 4.40228 9.03397C4.3696 9.03397 4.35326 9.05031 4.35326 9.083C4.35326 9.09934 4.35326 9.11568 4.3696 9.11568C4.38594 9.11568 4.40228 9.09934 4.41862 9.06666Z" fill="#BF1F3C"/>
</svg>
