<svg width="49" height="56" viewBox="0 0 49 56" fill="none" xmlns="http://www.w3.org/2000/svg">
<path d="M26.6256 55.8858C21.1472 55.8019 17.0004 53.8048 12.7217 51.1913C6.8982 47.6343 3.16505 43.0163 1.52968 36.4995C-0.343199 29.0367 -0.909158 21.4574 2.2301 14.3357C6.17731 5.3809 14.4459 -0.625816 24.543 0.0520538C29.7746 0.40334 34.4882 2.73536 38.4354 6.39828C40.4363 8.22939 42.2656 10.241 43.9 12.4078C45.7794 14.9347 46.5691 17.985 47.5435 20.934C50.1032 28.6808 49.0504 36.3664 46.2377 43.6526C43.795 49.9807 38.0421 52.9717 31.8428 54.9104C30.0072 55.4845 28.1731 56.3032 26.6256 55.8858ZM46.1008 25.5768C45.3273 16.6626 41.0346 9.89802 33.9011 4.96258C31.4371 3.2578 28.2789 2.8993 25.3948 2.23511C21.4547 1.3277 17.7167 2.45832 14.1047 4.31207C11.2495 5.7265 8.73069 7.7406 6.71911 10.2178C4.70754 12.695 3.2502 15.5773 2.44592 18.6694C1.72238 21.4316 1.52387 24.306 1.86077 27.142C2.26255 30.7635 3.32879 34.2791 5.00559 37.5111C5.94331 39.3084 7.77165 40.6986 9.36565 42.078C13.2125 45.4068 17.6196 47.8969 22.7833 47.6773C31.6418 47.3004 39.2393 44.3877 43.0655 35.4175C44.4276 32.2243 45.8615 29.0529 46.1008 25.5768V25.5768ZM4.57022 39.5913C4.45516 39.7965 4.40038 40.0303 4.41221 40.2655C4.42404 40.5007 4.502 40.7277 4.63707 40.9203C6.42129 44.0058 8.88965 46.6375 11.8507 48.6111C17.9763 52.773 24.0968 56.1475 31.7739 53.1703C36.8374 51.2068 41.5015 48.6837 44.5053 43.9015C46.9497 40.0101 46.5296 35.5155 46.9854 31.0984C44.2005 40.5641 38.2479 46.7034 28.6082 48.6875C18.8113 50.704 11.0055 46.8748 4.57022 39.5913V39.5913Z" fill="#ECEDF5"/>
<path fill-rule="evenodd" clip-rule="evenodd" d="M20.1903 33.0224L27.7563 25.9293L26.7331 28.5659C26.3094 29.1821 22.0743 32.3125 20.1903 33.0224ZM19.2876 32.5565C19.2911 33.4972 19.2666 32.6201 19.5299 33.6992C18.5986 33.9852 18.3003 34.4006 17.3096 34.3707L16.9629 28.5443L18.9463 27.073C18.4897 28.5448 17.8907 28.7941 17.7818 29.4351C17.3256 32.1211 20.4271 28.976 21.4194 28.5064C20.9682 29.6002 20.5361 29.4309 20.3877 30.5546L22.6783 27.8986C24.9525 25.2446 25.6725 25.0737 27.7048 22.9125C28.4907 22.0769 29.3875 20.5199 30.665 21.3644C30.6375 21.4217 30.5865 21.4417 30.57 21.53L20.8818 31.1462C20.4786 31.6862 20.1654 32.3015 19.2876 32.5565ZM16.1366 21.3644C16.6756 20.9269 17.0558 20.6787 17.4835 20.3316C17.0748 21.8387 16.0781 22.5738 16.9619 23.8927C18.09 23.869 17.6709 23.5719 18.7745 23.0639C18.689 23.2769 17.0828 26.2984 16.5832 26.5771L16.1366 21.3644ZM17.2677 27.0109C17.6359 25.9114 19.981 22.9057 20.7479 22.0075C21.7016 20.8911 22.0653 20.8044 22.9257 19.9278C23.6461 19.1942 24.3105 18.773 25.2633 18.161C26.5078 18.7404 27.1363 19.2547 28.5247 19.7038C27.9516 21.0531 25.4087 23.5567 24.306 24.724C23.5032 25.5738 20.3907 28.2887 19.0927 28.7005C19.8421 26.7612 23.3323 23.3458 24.8746 22.2415C27.5145 20.3511 25.606 19.9825 25.0624 20.0682C24.2876 20.1902 24.8391 20.0377 24.405 20.4489C24.2551 20.5909 23.733 21.2824 23.4797 21.5437C22.7828 22.2625 22.2122 22.9272 21.5168 23.5893C20.6485 24.4159 18.2344 26.6187 17.2677 27.0109ZM17.7578 22.1011C18.3013 20.8917 19.0747 19.9083 19.9655 19.1296L22.5205 16.8826L23.5841 17.4752C23.5452 17.5194 23.4907 17.5825 23.4482 17.6298C22.2152 19.0086 19.413 22.0233 17.7578 22.1011ZM16.7661 19.2863C17.0818 18.5191 17.538 17.9764 18.124 17.1902C19.2841 15.6327 19.4974 15.4975 20.8398 16.2258C20.3107 16.9957 17.6973 18.9828 16.7661 19.2863ZM20.7929 14.7645C19.5194 14.2518 17.1363 12.9872 15.7304 12.8799C15.8763 14.5032 17.1568 14.4317 18.3458 14.9975L16.4858 17.7823C15.9692 18.5774 16.3279 18.1799 15.7314 18.6116C15.662 17.7003 15.638 16.8595 15.6335 15.9471C15.6175 12.7337 13.6935 13.828 14.0423 15.4029L15.7019 30.3464C15.7309 31.7309 15.8533 35.2641 16.0611 36.1769C17.509 36.4825 18.0545 36.209 19.0652 35.4024C21.4229 33.5214 22.5724 33.3064 23.9728 32.342C24.8321 31.7504 24.4459 31.7609 26.237 30.6119C27.1458 30.0288 29.1347 27.9643 30.607 26.9862C33.0591 25.3566 34.9495 24.8897 35 23.451C33.0431 22.8778 31.0567 25.6853 28.6671 26.747C28.9918 25.3461 29.6198 25.4476 31.0027 23.5556C32.8962 20.9648 32.4855 22.8378 34.4469 22.5781C34.0458 20.7691 33.5397 21.3933 30.574 19.3693C29.1807 18.4181 27.4146 17.8318 25.8988 16.8374C24.3955 15.8509 22.7003 15.5317 20.7929 14.7645Z" fill="#ECEDF5"/>
</svg>
