<svg width="52" height="24" viewBox="0 0 52 24" fill="none" xmlns="http://www.w3.org/2000/svg">
<path fill-rule="evenodd" clip-rule="evenodd" d="M43.2256 10.8721C43.6631 11.8061 42.4315 11.7604 40.6252 13.1426C40.4174 13.3026 40.2893 13.4331 40.0919 13.5628L35.9818 16.6428C35.6886 16.9075 35.7232 16.7954 35.5535 17.0062L43.1148 12.8315C43.5869 12.5226 43.8443 12.356 44.3025 12.073C44.7781 11.7796 44.965 11.4331 45.8088 11.3409C45.8388 12.0317 45.6102 11.9683 45.1059 12.328C44.0255 13.0984 42.7755 13.8341 41.8186 14.6745L46.035 12.4158C46.5302 12.0752 46.2289 12.2101 46.7772 12.1341C47.345 12.9753 45.9554 12.8124 45.0031 14.1799C46.2335 14.1386 46.0212 13.8356 47.1407 13.6071C47.1292 13.5879 47.0611 13.5628 47.0876 13.5555C47.6763 13.394 46.9884 13.4567 46.9688 13.4294L46.8049 13.1198C47.3208 12.934 47.2054 12.9716 47.7086 12.7084C48.7393 12.1695 49.5034 12.471 48.2546 13.2053C47.8287 13.4559 47.4489 13.7324 47.2146 13.9056C48.1992 13.8289 49.6454 13.4316 50.2214 13.0158C49.934 12.7165 47.3924 11.5481 46.7287 11.2709C45.9992 10.9657 45.5687 10.7667 44.8554 10.4393C44.2471 10.1607 43.5119 9.87243 43.0075 9.60483L40.9922 11.2252C40.257 11.7958 39.5575 12.1821 38.8084 12.7409C38.3745 13.0645 34.9268 15.5061 34.7006 15.8997L36.7609 14.721C37.2202 14.401 37.1291 14.3966 37.7419 14.087C37.8908 14.0118 38.1967 13.8636 38.3029 13.8024L43.2256 10.8721ZM25.1436 13.0239L24.1649 13.7368C24.5261 13.523 24.907 13.3505 25.1436 13.0239ZM21.7572 0.928809C21.7156 1.60998 21.6094 2.19383 21.5471 2.87795C21.4571 3.87832 20.9896 4.0405 21.3763 4.4231L24.0922 1.85988C23.5174 1.48392 22.6759 1.09763 21.7572 0.928809ZM23.1445 4.35897C22.5524 4.57865 22.2339 4.83962 21.831 5.19494C21.5206 5.46771 20.9896 5.63357 21.0058 6.15256C21.4525 6.01618 22.946 4.59634 23.1445 4.35897ZM14.9969 7.46623C14.0851 8.45702 11.6035 9.80977 11.2642 10.5448C12.0179 10.3855 11.9036 10.3317 12.782 9.81714L16.3093 7.50899L14.9969 7.46623ZM11.7928 7.79429C11.7743 7.82304 11.7628 7.8599 11.7443 7.88865C11.5527 8.17763 11.6843 8.02355 11.39 8.28378C11.1153 8.52558 10.9098 8.64427 10.567 8.90597C9.99684 9.3387 9.39434 9.76185 9.00306 10.2359C9.64827 10.0825 10.986 9.15367 11.607 8.8035L13.965 7.51784C13.9327 7.50826 14.0274 7.47361 14.0562 7.43011L12.049 7.43306L11.7928 7.79429ZM9.15772 7.37187C8.92457 8.84626 6.33335 9.52743 6.38529 10.3265C6.59305 10.2307 6.71309 10.1739 7.0028 10.0457C7.19094 9.96163 7.19209 9.97269 7.36984 9.88349L8.80222 8.91408C9.75907 8.29336 10.724 8.01397 11.2145 7.45075L9.15772 7.37187ZM6.94509 7.3446C7.47949 8.07589 6.53188 8.03903 6.35528 8.6568C6.85506 8.35308 7.94926 7.97416 8.33477 7.43748C8.28745 7.422 8.22973 7.39841 8.1928 7.39104L6.94509 7.3446ZM7.87077 13.1352C7.61569 13.3033 7.28212 13.4677 7.13669 13.669L5.40305 15.3653C4.86057 15.7604 4.43235 16.1459 4.13918 16.6126L6.25256 16.4202C6.27564 16.3855 6.3472 16.2558 6.36913 16.2182C6.44993 16.0833 6.45685 16.0413 6.58497 15.8577L7.24287 16.0059C8.10738 15.9041 11.9798 13.4552 12.1218 13.4124L12.5985 13.8916C13.2852 13.1765 14.7522 12.1865 15.3732 11.5857C15.7852 11.1868 16.2262 10.8426 16.7121 10.4165L17.5985 9.72647C17.6308 9.69551 17.7151 9.59156 17.7405 9.55839C18.066 9.14482 17.976 9.09248 17.5685 8.88533C18.4238 8.4784 19.1867 8.13413 19.488 7.4279L17.5362 7.42495C17.3388 7.80461 15.3755 9.40653 14.8861 9.76112C14.1867 10.2683 12.6908 11.2996 12.221 12.0457L15.5163 10.2572C15.5613 10.2329 15.6848 10.1526 15.7264 10.1341C15.9584 10.0309 15.8314 10.0412 16.1569 10.0582L12.2245 12.4924C11.5054 12.9465 10.9595 13.3291 10.2739 13.7818C8.5079 14.948 9.50399 14.9642 8.30245 15.0188C8.28629 14.9775 8.18703 14.7556 8.19742 14.6679C8.22858 14.418 8.23897 14.4946 8.36016 14.3752C8.60601 14.1349 8.30014 14.4342 8.69373 14.1887C11.0437 12.7217 12.3087 11.5009 14.1486 9.91666C14.6657 9.4714 15.8591 8.76517 16.0172 8.22628L7.87077 13.1352ZM4.51315 8.71062L6.63691 7.3328L5.89706 7.32248C5.87167 7.34607 5.83819 7.38072 5.82434 7.3962L5.23107 8.02871C4.95752 8.29189 4.76477 8.42606 4.51315 8.71062ZM4.51315 8.71062L4.01222 9.16841L4.51315 8.71062ZM2.52328 10.8603C3.31622 10.6185 4.88019 9.39768 5.24608 8.97674C4.5547 9.30479 2.92379 10.3472 2.52328 10.8603ZM2.52328 10.8603L1.69224 11.0232C1.66454 10.3 3.20773 9.31954 4.39196 8.12234C3.8287 8.29558 2.64794 9.05783 2.14585 9.47951C1.04357 10.4054 1.02049 9.97711 0.901601 11.4935C0.833501 12.3634 1.09551 16.0811 1.41061 16.6546L2.92033 16.687C3.45589 16.3568 3.65788 15.9978 4.20959 15.6137C6.7154 13.868 4.76362 14.6037 5.87975 13.7633L13.3314 8.31401C12.0306 8.6192 8.86571 10.7003 7.88231 11.3579C6.90585 12.011 6.06673 12.46 5.26455 12.9922C3.8691 13.9152 3.72366 14.5116 2.93418 14.6605C2.47942 13.9897 3.6648 13.4191 4.29731 13.0085L8.31284 10.2477C8.88648 9.73826 9.7787 9.25761 10.0926 8.74305C8.90264 8.89713 6.99472 10.4784 5.98709 11.0438C5.28763 11.436 4.79016 11.6645 4.01222 12.1916C3.1454 12.7792 2.77952 13.2318 1.99695 13.223C1.885 12.4474 6.23409 10.6163 7.67686 8.4467C6.56881 8.89123 5.47692 9.65349 4.68166 10.213C3.39818 11.1161 2.61677 12.0265 1.9 12.1157C1.56874 11.5385 2.23819 11.3299 2.52328 10.8603ZM4.82133 7.24655C3.66596 7.20895 2.30282 7.04751 1.1336 7.22959L1.18785 9.28415C1.61837 8.97158 2.92148 7.91297 3.16733 7.59672C3.38432 7.91445 3.21812 7.91961 2.95496 8.20122C3.59093 8.06336 4.61241 7.60851 4.82133 7.24655ZM25.5222 5.6697C26.007 4.79539 27.3136 4.213 27.7776 3.30699C26.8784 2.90596 25.8177 2.54547 24.9486 2.19826C24.1822 2.4806 23.6928 2.98115 23.3061 3.41536C24.1302 3.22664 24.1291 2.96346 24.5527 3.24212C25.266 3.71098 23.9236 4.41573 23.5739 4.65753L21.1304 6.63911C20.8211 7.00918 20.8846 7.14629 20.5187 7.39768C19.877 7.83852 19.9081 7.54954 19.7581 8.25724C20.9561 7.85842 22.0642 6.74821 23.9363 5.94467L18.4861 9.66307C16.4189 10.4843 16.1084 11.4198 14.6391 12.5167C13.6892 13.2252 12.6377 14.2285 12.0964 15.1832L13.1732 14.9052C12.7877 15.2466 12.2337 15.5267 11.7674 15.7538L10.5843 16.2514C9.26276 16.3929 10.365 15.349 10.6501 14.951C9.9172 14.9723 7.94118 16.1172 7.32598 16.5145C7.29597 16.5337 7.24865 16.5713 7.21056 16.6001C9.55593 16.645 11.6751 16.7762 14.0135 16.6391C16.1223 16.5153 18.2564 16.2469 20.3848 16.2381L28.1989 10.0221C29.0403 9.32839 29.8783 8.80793 30.6123 7.86285C29.0645 8.3951 27.878 9.70141 26.5126 10.0125C26.9615 9.45223 29.9798 7.638 31.0844 7.03719C32.1844 6.43859 32.2444 7.18537 31.5726 7.74047C31.1629 8.07958 31.0336 8.19606 30.5869 8.50936L28.6963 9.95869C27.9911 10.5234 25.5649 12.3265 25.1436 13.0239C26.4756 12.6634 29.0553 10.6207 30.0375 10.0553C31.156 9.41169 33.6098 7.36745 34.8887 7.09174C35.6309 7.62178 34.4455 8.26093 33.888 8.71136C32.8215 9.57387 28.477 13.0033 28.0811 13.8747C28.8487 13.6476 28.9884 13.2348 29.6336 12.9554C29.3277 13.7552 24.7916 16.2971 23.642 17.5083C22.7914 18.4054 21.7676 17.8525 22.7359 17.1832C24.1095 16.2337 25.3537 15.3608 26.5345 14.2808C27.077 13.7847 27.4544 13.5038 27.9957 13.0608C29.4189 11.8953 32.9289 9.12566 33.7114 8.21596C32.1382 8.60373 26.1605 12.9871 24.6393 13.9506L21.7537 16.059C22.4058 16.8146 21.569 18.7563 22.0296 19.812L30.7809 13.3166C31.8935 12.4747 35.7001 9.97048 36.0325 9.25319C34.9811 9.7449 34.3739 10.2956 33.1724 10.8551C33.4194 10.2403 35.497 9.21854 36.2045 8.67081C36.5762 8.38183 36.8982 8.12013 37.5942 8.10022C37.7235 9.063 34.195 11.1021 33.2128 11.955C31.9362 13.0615 31.0509 13.478 30.0029 14.3428C29.6405 14.6413 29.7236 14.7195 29.2942 15.035L26.7203 16.8094C26.1201 17.2429 25.5315 17.596 25.146 18.1283C26.2032 17.6985 27.1185 16.9738 28.065 16.404L29.8321 15.3328C29.7825 15.77 29.5481 15.697 29.0622 16.0177L21.7699 21.0778C21.8714 21.5444 22.28 21.9867 22.1854 22.6524L21.8564 23.2024C21.5887 23.6366 21.7491 23.6535 21.3382 24C20.5002 23.0446 20.8442 21.7457 20.8869 20.6229C20.9331 19.3719 21.0277 18.0671 20.8904 16.8706C18.4134 17.627 6.54342 16.937 2.38939 17.2473C1.03434 17.3483 1.17515 17.5842 0.176751 17.1994L0.387975 14.5367C0.342957 13.5835 0.0924921 12.7431 0.112115 11.7486C0.130582 10.8035 0.246003 9.7648 0.184831 8.83225C0.117887 7.81345 -0.33803 7.18905 0.493009 6.40025C4.73014 6.8986 9.40588 6.69218 13.6546 6.45628C13.9535 6.43933 14.294 6.41868 14.5722 6.47397L14.9611 6.61994C15.4609 6.81382 15.8545 6.57866 16.3889 6.5993C17.0041 6.62289 16.4951 6.7143 17.4762 6.61773C17.961 6.56981 18.2818 6.55875 18.8081 6.57349C20.8038 6.63173 20.1724 6.27936 20.5545 3.5053C20.6976 2.47249 20.5476 1.00695 20.7622 0.0839855C21.7583 -0.0877788 21.6256 0.00584337 22.3527 0.347163C23.3627 0.820442 24.263 1.04602 25.2221 1.55764L32.9081 4.63468C33.5741 4.87206 34.3959 5.11533 34.9487 5.3645C37.3195 6.43122 40.0642 7.4279 42.353 8.617L47.921 11.1448C49.343 11.6719 50.4522 12.3619 52 12.5912C51.9908 13.4279 50.1775 13.7678 48.5951 14.1651C47.8229 14.359 47.2585 14.5713 46.5994 14.7991C45.9034 15.0402 45.2986 15.1942 44.6165 15.436C42.1638 16.3059 39.7364 17.4065 37.3599 18.2904C33.6479 19.6712 29.9521 21.1441 26.1813 22.4195L23.4827 23.4884C22.8629 23.8017 23.2115 23.784 22.2304 23.6321C22.2189 22.8389 22.2431 23.0851 23.0603 22.8426C25.7392 22.0486 35.759 18.1039 38.6134 17.0638C39.5806 16.7114 40.6102 16.3914 41.5543 16.0206C42.6139 15.6048 43.2764 15.1987 44.3972 14.9001L43.9447 13.8747C43.7081 14.2617 43.034 14.5521 42.495 14.8411C41.8163 15.2046 41.5116 15.5591 40.6263 15.5356C40.414 15.2245 40.5663 15.0925 40.6817 14.7821C39.9061 14.9753 39.4029 15.3822 38.8835 15.7044L35.5397 17.6218C34.9187 18.0162 34.4501 18.3686 33.4771 18.3465C33.1308 17.6034 34.2862 17.195 34.9787 16.6295C35.6228 16.1025 36.8243 15.3048 37.0171 14.9686C35.4162 15.7427 32.4683 17.5002 31.1583 18.763C30.8086 19.0991 30.9251 19.1596 30.505 19.4279C29.8263 19.2923 30.0214 19.3623 29.7063 18.9746C30.0121 18.5227 29.869 18.7659 30.3261 18.4784C31.5403 17.7162 35.3943 14.4047 37.2699 13.1559L39.4767 11.5341C39.8288 11.279 39.4779 11.5886 39.8045 11.2687C39.3128 11.5886 39.6868 11.5864 39.0474 11.4279L40.8156 10.4732C41.0084 10.3398 41.3881 10.1135 41.6236 9.97859L42.495 9.28858C41.245 8.94947 30.3526 3.90265 28.3178 3.5827C27.474 4.11791 26.4191 5.37998 25.5222 5.6697Z" fill="#2E0E59"/>
<path fill-rule="evenodd" clip-rule="evenodd" d="M25.5223 5.66935C25.3514 6.10134 20.7519 9.82637 19.6784 10.9123L18.8532 11.7475C19.2641 11.6001 19.8897 11.2145 20.1828 10.9963L24.2295 8.24731C24.6612 7.9598 25.064 7.73054 25.55 7.44672C26.5195 6.88129 29.2365 5.03315 29.9764 5.12309C30.3434 5.71358 27.5433 7.56172 26.8404 8.1382C26.0324 8.8002 21.4525 12.8363 21.1997 13.286C21.8034 13.1128 21.6695 13.0663 22.452 12.5599L24.9244 10.9712C25.9874 10.3483 25.1518 10.4419 26.3683 10.1692C26.1005 10.5304 26.3822 10.2731 26.0232 10.5392C25.9712 10.5776 25.6111 10.781 25.5165 10.8408L20.8223 14.1824C20.3525 14.5319 19.6126 15.4187 18.964 15.3229C18.9213 15.2558 18.4365 15.415 19.1013 14.7361L23.6686 10.5444C24.5689 9.78362 28.5394 6.57904 28.8429 5.9399C27.4798 6.36009 26.6084 7.07591 25.5892 7.72095C22.781 9.49759 20.4864 10.9978 18.0856 13.0708C17.5674 13.519 17.3492 13.9436 16.4235 14.0549C16.2608 13.5875 16.5921 13.3804 17.0791 12.9322L21.7768 8.7051C22.2881 8.26353 25.0098 5.833 25.5223 5.66935Z" fill="#2E0E59"/>
<path fill-rule="evenodd" clip-rule="evenodd" d="M36.4712 11.4935C36.0833 11.1175 36.4596 11.3446 36.0787 11.2406L37.9878 9.93505C38.7692 9.43966 39.4537 8.70099 40.0642 8.81673C40.4117 9.37405 39.5968 9.51632 38.4183 10.468L35.153 12.6877C34.6244 13.0541 34.6279 13.2052 34.1512 13.5716C33.7218 13.9012 32.4279 14.6531 32.0794 15.3114C32.8354 15.0674 32.1509 15.1868 32.9635 15.0497L30.9194 16.0862C30.4646 16.6929 28.9872 17.6564 28.2277 18.1555C27.7983 18.4364 27.6495 18.6384 27.2328 18.9141L23.7066 21.7088C22.8341 21.8319 22.8941 21.1198 24.3415 20.2344C26.2171 19.0866 26.4872 18.8057 27.9357 17.7132C29.6509 16.4194 31.4942 15.1986 33.1424 13.8112C35.3273 11.9697 33.7622 13.0268 34.5482 12.2845C34.6821 12.1577 34.7733 12.1415 34.9522 12.1024L35.2939 12.0781C35.8744 11.9461 35.7775 11.6181 36.4712 11.4935Z" fill="#2E0E59"/>
<path fill-rule="evenodd" clip-rule="evenodd" d="M38.7646 11.7565L38.5153 11.9032C37.5861 12.4465 37.5746 12.7377 36.7435 12.7178C37.2018 12.3315 37.1464 12.5807 37.6704 12.2806C38.3768 11.8759 37.6473 11.9423 38.7646 11.7565Z" fill="#2E0E59"/>
<path fill-rule="evenodd" clip-rule="evenodd" d="M7.75183 14.9989C7.32938 15.2341 7.35362 15.2525 7.18972 15.6211L7.34439 15.1943C7.73798 14.8507 7.46558 15.0829 7.75183 14.9989Z" fill="#2E0E59"/>
</svg>
