<svg width="30" height="40" viewBox="0 0 30 40" fill="none" xmlns="http://www.w3.org/2000/svg">
<path d="M13.6313 22.4946C12.3459 22.7052 11.0605 22.9159 9.77512 23.1686C9.4752 23.2107 9.21812 23.2107 8.9182 23.2107C8.83251 23.2107 8.66112 23.1686 8.66112 23.0844C8.96105 22.1576 8.14697 22.621 7.93274 22.621C6.56166 22.621 5.40481 22.0734 4.3765 21.3151C2.83404 20.2199 1.50581 18.9983 0.948807 17.1448C0.520345 15.7125 0.0490368 14.2382 0.00619056 12.7217C-0.0366556 10.6576 0.134729 8.59345 0.777422 6.61359C0.991653 5.93959 1.46296 5.43409 1.84858 4.9286C3.21966 3.03298 4.89066 1.39012 7.20435 0.716121C8.74682 0.252749 10.2893 0 11.9603 0C14.3168 0.0421248 16.3734 0.716121 18.4729 1.60074C18.9014 1.76924 19.3298 1.72712 19.4155 2.35899C19.4584 2.69598 19.844 2.61174 20.1011 2.44324C20.3581 2.27474 20.6152 1.93774 20.8723 2.31686C21.1294 2.65386 20.7438 2.78023 20.5295 2.90661C20.2724 3.07511 20.3153 3.20148 20.401 3.41211C20.4867 3.62273 20.6152 3.7491 20.8723 3.5806C21.0865 3.45423 21.5578 3.53848 21.3008 3.83335C20.6581 4.63372 21.3864 5.22347 21.7292 5.60259C22.5433 6.44509 22.5433 7.49821 22.7575 8.5092C22.8861 9.05682 22.9289 9.68869 23.1003 10.2784C23.4002 11.4579 23.0146 12.6796 23.1003 13.859C23.1003 13.9854 23.0146 14.1118 22.9718 14.196C22.2434 15.544 21.7721 17.0184 20.6152 18.1558C19.5441 19.2089 19.4155 20.4726 20.0582 21.7785C20.6152 22.958 21.1722 24.1375 21.9434 25.1906C21.9863 25.2327 21.9863 25.4012 22.0291 25.4012C23.186 25.4012 23.0574 26.665 23.7001 27.2126C25.3711 28.6027 26.528 30.4562 27.8991 32.1412C29.1416 33.6156 30.0414 35.2163 29.9985 37.1962C29.9557 38.0808 29.4415 38.7548 29.0559 39.513C28.6703 40.3134 27.7705 39.9343 27.1278 39.7236C25.1141 39.1339 23.5716 37.828 22.629 36.0588C21.1722 33.3207 19.8868 30.4562 18.3872 27.7181C17.3589 25.8646 16.2877 24.0111 14.4454 22.7474C14.1883 22.5367 13.9741 22.4525 13.6313 22.4946ZM12.3031 4.4231C11.5318 4.38097 10.7177 4.46522 9.90366 4.84435C9.34666 5.13922 8.83251 5.51834 8.27551 5.77109C6.56166 6.48721 5.87612 8.1722 4.71927 9.3517C4.29081 9.77294 4.33366 10.5733 4.16227 11.1631C3.8195 12.5953 4.16227 13.9012 4.84781 15.1228C5.14773 15.6704 5.70474 16.0495 6.00466 16.5972C6.39027 17.2711 7.03297 17.6503 7.71851 17.8609C8.14697 18.0294 8.57543 18.24 9.00389 18.4085C9.94651 18.8298 10.932 19.2931 12.0031 19.2931C13.6741 19.2931 15.1309 18.577 16.2877 17.566C17.059 16.892 18.3015 16.1759 17.9588 14.7437C17.9588 14.6594 18.0016 14.533 18.0444 14.4488C18.4301 14.0275 18.73 13.5642 18.2587 13.0165C18.173 12.9323 18.2158 12.7217 18.3444 12.5953C18.5586 12.4268 18.5158 12.2162 18.5158 11.9634C18.5586 11.0367 18.3015 10.1521 18.0444 9.26745C17.7874 8.46708 17.5303 7.70883 16.5877 7.24546C15.9878 6.95058 15.6022 6.15021 15.1737 5.51834C15.0024 5.26559 14.7881 5.0971 14.5739 4.9286C13.9312 4.33885 13.2028 4.4231 12.3031 4.4231ZM19.3727 9.09895C19.9725 9.09895 20.3581 8.6777 20.8294 8.46708C21.0008 8.38283 21.1722 8.13008 21.4293 8.3407C21.7292 8.59345 21.3864 8.76195 21.2579 8.97257C21.1722 9.14107 20.958 9.1832 20.8723 9.30957C20.4867 9.68869 19.8868 9.81507 19.6726 10.4469C19.9725 10.3206 20.2296 10.2784 20.4438 10.1942C20.8294 10.0678 21.3008 9.39382 21.6007 9.85719C21.8578 10.2784 21.1294 10.5733 20.7866 10.8682C20.3153 11.2894 19.6726 11.6264 19.4584 12.4689C20.1868 12.1741 20.7009 11.7528 21.2151 11.3737C21.4293 11.2052 21.7721 11.1631 21.9863 11.3737C22.1577 11.5843 21.9006 11.8371 21.7292 11.9213C21.0865 12.2162 20.6152 12.8059 20.0582 13.185C19.7154 13.3957 19.4584 13.6905 19.3298 14.2382C19.7583 13.9012 20.0582 13.6905 20.3581 13.4799C20.5295 13.3535 20.7866 13.3114 20.9151 13.4378C21.0865 13.6063 20.9151 13.8169 20.7866 13.9433C20.1439 14.6173 19.5441 15.2492 18.9014 15.9232C18.0873 16.8078 17.2732 17.6924 16.6734 18.7455C17.6588 18.24 18.4301 17.4396 19.2013 16.6814C19.3727 16.5129 19.5012 16.2602 19.7583 16.3865C20.1011 16.555 19.6726 16.8078 19.8011 17.0184C19.9725 16.9763 20.1439 16.9342 20.2296 16.9763C21.0437 17.3554 21.1294 16.7657 21.4293 16.2602C21.8578 15.5019 21.9006 14.6594 22.0291 13.859C22.3291 12.3847 22.629 10.9524 22.5004 9.47807C22.4148 8.71982 22.2434 8.04583 21.9006 7.32971C21.7721 7.07696 21.6435 6.99271 21.4721 7.20333C20.7438 7.87733 19.8868 8.29858 19.3727 9.09895ZM24.0858 35.5954C24.4285 35.7218 24.5571 35.5954 24.6856 35.5112C25.414 35.0478 25.9281 34.3738 26.5708 33.8262C26.7422 33.6577 27.0421 33.3628 27.2992 33.6156C27.5135 33.8262 27.3421 34.1211 27.085 34.3317C26.9993 34.4159 26.9136 34.5002 26.8279 34.5844C26.2281 35.3427 25.6711 36.0588 25.6711 37.154C26.4851 36.6907 26.9993 36.1009 27.5135 35.4269C27.6848 35.2163 27.8562 34.7108 28.2418 34.9635C28.6703 35.2163 28.199 35.5533 28.1133 35.806C27.8991 36.2694 27.5563 36.6907 27.7277 37.3225C28.2847 36.9855 28.4561 36.1009 29.313 36.3537C28.756 34.2053 28.1561 33.1101 27.1707 32.2676C26.9993 32.0991 26.8708 31.9306 26.6137 32.1833C25.6282 33.1943 24.857 34.3317 24.0858 35.5954ZM22.2862 31.1302C21.9434 31.2987 21.6864 31.5514 21.4293 31.5514C20.9151 31.5514 21.1294 31.8463 21.2151 32.0148C22.1148 33.5313 22.7147 35.2584 23.8287 36.6907C24.5999 37.7438 25.6282 38.4599 26.7851 38.9654C27.3849 39.2181 28.199 39.6394 28.756 38.6705C29.0988 38.0808 29.3558 37.5332 29.1416 36.7328C28.6703 37.3647 28.3704 37.9544 27.7277 38.2914C27.5135 38.4178 27.2992 38.4599 27.085 38.3335C26.9136 38.2072 26.8279 37.9965 26.9565 37.7859C27.085 37.5332 27.085 37.2383 27.0421 36.9855C26.5708 36.9434 26.4423 37.4489 26.0567 37.5332C25.7996 37.6174 25.5425 37.9544 25.2426 37.7438C24.8998 37.5332 25.0712 37.154 25.0284 36.8592C24.9855 36.3958 25.5425 36.1009 25.4568 35.5954C25.1141 35.806 24.857 35.9745 24.5142 36.143C24.2571 36.2694 23.9572 36.48 23.6144 36.143C23.3145 35.806 23.5288 35.5954 23.6573 35.3427C23.9144 34.8793 24.2143 34.4581 24.4714 33.9947C24.2143 34.0368 24.0858 34.2053 23.8715 34.2896C23.5716 34.4581 23.2288 34.7108 22.8861 34.4581C22.5861 34.2053 22.5861 33.7841 22.8004 33.4471C22.9718 33.1943 23.1003 32.8994 23.2717 32.5624C22.7575 32.6888 22.4576 33.3207 21.9863 32.8994C21.4721 32.2254 22.1577 31.7621 22.2862 31.1302ZM6.04751 2.52749C4.41935 4.4231 2.61981 6.15021 1.29158 8.29858C1.80573 7.96158 2.27704 7.62458 2.66266 7.20333C4.24796 5.56047 5.79043 3.87548 7.37574 2.19049C7.50428 2.02199 7.88989 1.89561 7.71851 1.60074C7.54712 1.26374 7.20435 1.64287 6.94728 1.60074C6.86158 1.60074 6.77589 1.68499 6.6902 1.72712C5.0192 2.31686 3.8195 3.49636 2.79119 4.80222C1.89142 5.89747 1.76288 6.15021 1.89142 6.78209C2.57696 5.98171 3.17681 5.18134 3.86235 4.4231C4.59073 3.41211 5.70474 2.48536 6.04751 2.52749ZM5.61904 6.57146C7.20435 5.64472 11.2319 1.89561 12.0888 0.673996C11.4033 0.631871 10.7606 0.589747 10.1179 0.80037C10.0322 0.842495 9.77512 0.80037 9.90366 0.968869C10.2893 1.47437 9.77512 1.60074 9.56089 1.85349C8.83251 2.65386 8.01843 3.36998 7.33289 4.21248C6.73304 4.9286 6.00466 5.56047 5.61904 6.57146ZM18.9871 6.61359C18.73 6.57146 18.5158 6.57146 18.4301 6.31871C18.2158 5.68684 18.9442 5.51834 19.1156 5.05497C18.6871 5.01285 18.2158 5.47622 17.8731 5.01285C17.5731 4.5916 18.173 4.46522 18.2158 4.04398C17.8731 4.12823 17.5731 4.21248 17.2732 4.2546C16.9733 4.29673 16.4163 4.33885 16.4591 4.04398C16.5877 3.03298 15.8593 3.66485 15.6879 3.70698C14.7453 3.83335 14.7024 3.83335 14.7881 2.90661C14.3168 3.15936 13.8884 3.36998 13.4171 3.5806C15.4737 4.4231 17.2304 5.51834 18.1301 7.87733C18.3015 7.20333 18.73 7.03483 18.9871 6.61359ZM22.5004 32.3939C23.3145 31.8884 24.0001 31.2987 24.6428 30.6668C24.857 30.4562 25.1141 30.035 25.414 30.372C25.7139 30.6247 25.3283 30.8774 25.1141 31.1302C24.7713 31.5093 24.3428 31.8884 24.0858 32.3097C23.7858 32.8152 23.1431 33.1943 23.3574 33.9526C23.7858 33.9526 24.0429 33.6156 24.3 33.4049C25.0284 32.8152 25.9281 32.2254 26.3138 31.4251C26.528 30.9196 25.5425 30.2456 25.1569 29.6137C25.1569 29.5716 25.1569 29.5716 25.1141 29.5295C24.8998 29.3188 24.7284 29.1082 24.4714 29.4873C24.0429 30.035 23.5288 30.4562 23.1431 31.0038C22.8432 31.3829 22.3291 31.6778 22.5004 32.3939ZM1.46296 12.8481C1.89142 12.4268 2.23419 12.0477 2.7055 11.9634C3.17681 11.8792 3.2625 11.6686 3.30535 11.2894C3.43389 10.4891 3.69096 9.68869 4.11943 9.0147C4.71927 8.08795 5.31912 7.16121 5.19058 6.02384C4.89066 6.36084 4.4622 6.69784 4.20512 7.16121C3.60527 8.08795 2.87689 8.97257 2.44842 10.0257C3.09112 10.1521 3.17681 10.3627 2.79119 10.8261C2.61981 11.0367 2.36273 11.2052 2.19135 11.4158C1.80573 11.7528 1.50581 12.1741 1.46296 12.8481ZM16.7162 22.7895C17.1447 22.4525 17.5731 22.0734 18.0016 21.7364C18.2158 21.5679 18.4301 21.2309 18.7728 21.5258C19.0728 21.7785 18.7728 21.9891 18.6443 22.2419C18.2587 23.0001 17.5303 23.5477 17.2304 24.4324C17.9587 24.1796 18.4301 23.6741 19.0728 23.4214C19.8011 23.1265 20.1868 22.7895 19.6298 21.947C19.3298 21.5258 19.1156 20.9781 19.1156 20.4305C19.1156 20.2199 18.9442 20.0093 18.73 20.262C17.8731 20.9781 17.059 21.6943 16.7162 22.7895ZM13.6313 21.7364C14.1883 21.6521 14.6596 21.9049 15.0024 21.5258C15.5165 20.8939 16.0307 20.1778 16.5877 19.4616C15.6022 19.5459 15.9878 18.9561 15.9878 18.5349C15.0452 18.9983 14.274 19.7986 13.2457 19.925C12.3031 20.0514 11.8317 20.6833 11.2319 21.4836C12.603 21.0203 13.6741 20.3884 14.7453 19.6723C14.9595 19.5459 15.1737 19.3353 15.388 19.588C15.6451 19.925 15.2594 20.0093 15.1309 20.1778C14.6167 20.6411 14.0169 21.0203 13.6313 21.7364ZM14.2311 0.842495C13.7598 0.673996 13.3314 0.252748 12.9029 0.842495C12.3459 1.64287 11.489 2.14836 10.8463 2.82236C10.5464 3.15936 10.2464 3.49636 10.075 4.04398C11.7032 3.20148 12.9029 1.93774 14.2311 0.842495ZM0.905961 12.1319C1.16304 11.9634 1.29158 11.7107 1.42011 11.4579C1.54865 11.2894 1.76288 10.9103 1.72004 10.9103C1.07735 10.4048 1.72004 10.0678 1.89142 9.73082C2.23419 8.97257 2.79119 8.3407 3.00542 7.62458C1.24873 8.59345 0.434653 10.1099 0.905961 12.1319ZM21.4721 30.9196C22.072 30.7089 22.3719 30.2456 22.8004 29.9928C23.2717 29.698 23.5288 29.2346 24.0429 28.9818C24.2571 28.8976 24.2571 28.7291 24.1286 28.4763C23.6573 27.7181 23.5288 27.676 22.9718 28.4342C22.8432 28.6027 22.6718 28.7291 22.5861 28.8976C22.2434 29.5295 21.5578 30.035 21.4721 30.9196ZM21.0437 27.002C20.3581 27.2547 19.9725 27.7602 19.3727 27.8866C19.1584 27.9287 19.287 28.0972 19.3298 28.2657C19.7583 29.1503 20.1868 30.0771 20.6581 31.0459C21.0008 30.4141 21.3436 29.8665 21.6435 29.3188C21.4293 29.1925 21.3864 29.2767 21.3008 29.3188C20.958 29.4873 20.5724 29.698 20.2296 29.361C19.8868 29.024 20.0582 28.6027 20.2724 28.2657C20.4867 27.8445 20.7438 27.4653 21.0437 27.002ZM1.24873 15.881C3.30535 14.6173 3.51958 14.2382 3.00542 12.4268C2.40558 13.522 1.50581 14.4488 1.24873 15.881ZM16.3734 1.34799C15.9021 1.26374 15.4308 1.13737 15.0024 1.01099C14.8738 0.968869 14.7024 0.926745 14.6596 1.01099C14.3168 1.81136 13.5884 2.27474 13.2028 3.07511C14.274 2.56961 15.388 2.14836 16.3734 1.34799ZM20.7009 28.8555C21.4293 28.5606 22.072 28.1393 22.6718 27.676C22.9289 27.5075 23.186 27.3811 22.8432 27.0862C22.5861 26.8756 22.4148 26.2437 21.9006 26.8335C21.3864 27.4232 20.9151 28.013 20.7009 28.8555ZM21.0008 24.7272C20.8294 24.3902 20.6581 24.1796 20.5295 23.8847C20.3581 23.4635 20.1868 23.5056 19.8868 23.8005C19.4584 24.2217 19.0728 24.6851 18.7728 25.1906C18.6871 25.317 18.4301 25.4434 18.6014 25.6119C18.73 25.7382 18.9014 25.6119 19.0728 25.5276C19.7154 25.2749 20.1868 24.7272 21.0008 24.7272ZM5.14773 20.4305C5.91897 20.1778 6.51881 19.8408 7.07581 19.4616C7.2472 19.3353 7.58997 19.2089 7.33289 18.9983C7.07581 18.8298 6.6902 18.3243 6.34743 18.7034C5.91897 19.1668 5.36197 19.588 5.14773 20.4305ZM6.86158 21.1888C7.76135 20.8518 8.48974 20.4726 9.21812 20.0514C9.30382 20.0093 9.43236 19.925 9.38951 19.7565C9.34666 19.6301 8.18982 19.3774 8.10412 19.5038C7.76135 20.0935 7.11866 20.3884 6.86158 21.1888ZM15.4308 3.32786C16.2021 3.11723 16.8876 2.86448 17.5731 2.48536C17.7874 2.35899 17.9587 2.27474 18.0444 2.06411C17.7445 1.97986 17.616 1.60074 17.2304 1.72712C17.1018 1.76924 17.0161 1.85349 16.8876 1.89561C16.2877 2.23261 15.8593 2.78023 15.4308 3.32786ZM21.4293 6.65571C21.3436 6.40296 21.2579 6.19234 21.2151 5.98172C21.1722 5.81322 21.0865 5.64472 20.9151 5.77109C20.2296 6.31871 19.5441 6.86633 18.8585 7.41396C18.9014 7.45608 18.9442 7.54033 18.9871 7.58246C19.8011 7.37183 20.5295 6.82421 21.4293 6.65571ZM19.4155 27.2547C20.1011 27.0441 20.4438 26.7071 20.8723 26.4543C21.7721 25.8646 21.7721 25.8646 21.1294 25.0221C20.5724 25.6961 20.0582 26.3701 19.4155 27.2547ZM4.29081 16.1338C3.8195 16.5972 3.39104 17.0605 3.13396 17.7345C3.60527 17.7766 3.8195 17.4396 4.11943 17.3133C4.9335 16.892 4.89066 16.892 4.29081 16.1338ZM20.4438 17.6081C19.4155 17.9873 18.8585 18.4506 18.2158 19.5459C19.1156 19.1668 19.7583 18.4506 20.4438 17.6081ZM18.8157 24.1375C18.4301 24.3481 18.0873 24.5166 17.7874 24.6851C17.616 24.7694 17.2304 24.6851 17.3589 25.0221C17.4874 25.317 17.5731 25.6961 17.9159 25.7382C18.2158 25.7804 18.1301 25.4012 18.2158 25.2327C18.3444 24.8957 18.6443 24.6009 18.8157 24.1375ZM2.49127 16.555C2.79119 16.3444 3.09112 16.1338 3.43389 15.9232C4.03373 15.6283 3.94804 15.2913 3.51958 14.9122C2.91973 15.2913 2.83404 16.0074 2.49127 16.555ZM17.2304 3.79123C17.8302 3.7491 18.2158 3.41211 18.73 3.24361C18.8585 3.24361 19.2441 3.24361 19.0299 2.86448C18.9014 2.65386 18.6443 2.48536 18.3872 2.69598C18.0016 3.07511 17.4874 3.28573 17.2304 3.79123ZM5.61904 18.6191C4.97635 18.9561 4.50504 19.2089 3.94804 19.3353C4.4622 20.2199 4.50504 20.2199 5.06204 19.4195C5.23343 19.2089 5.36197 18.9983 5.61904 18.6191ZM18.8585 27.2126C19.2013 26.7071 19.4584 26.2858 19.8011 25.7804C19.2013 25.9489 18.8157 26.328 18.2587 26.2858C18.4729 26.6228 18.6014 26.8756 18.8585 27.2126ZM18.5586 4.63372C19.0299 4.4231 19.3727 4.2546 19.7583 4.12823C19.8868 4.0861 20.1868 4.12823 20.0154 3.83335C19.8868 3.62273 19.6726 3.5806 19.5012 3.70698C19.2013 4.00185 18.8157 4.12823 18.5586 4.63372ZM11.0177 20.2199C10.1179 19.7565 9.94651 20.599 9.56089 20.8939C10.1179 20.8518 10.5464 20.5569 11.0177 20.2199ZM5.19058 21.1888C5.66189 21.2309 5.87612 21.5679 6.34743 21.5679C6.1332 21.2309 6.26174 20.936 6.43312 20.5148C5.96181 20.7254 5.66189 20.936 5.19058 21.1888ZM19.2013 5.77109C19.2013 5.81322 19.2441 5.85534 19.2441 5.89747C19.6298 5.68684 20.0582 5.47622 20.4438 5.22347C20.5295 5.13922 20.8294 5.05497 20.6152 4.84435C20.4438 4.63372 20.3153 4.80222 20.1868 4.9286C19.844 5.22347 19.5012 5.51834 19.2013 5.77109ZM5.79043 17.9873C5.23343 17.5239 5.23343 17.5239 4.50504 18.6191C4.97635 18.3664 5.36197 18.1979 5.79043 17.9873ZM11.7461 21.9891C13.0743 22.0312 12.7315 22.1155 12.9886 21.2309C12.7315 21.6521 12.1317 21.5258 11.7461 21.9891ZM16.1164 23.4635C16.4163 23.7162 16.502 24.0954 16.7591 23.969C17.1018 23.8005 17.1875 23.3792 17.4017 22.8316C16.9733 23.2529 16.6305 23.3792 16.1164 23.4635ZM16.2449 21.947C15.8164 22.1997 15.5165 22.4104 15.0452 22.3261C15.388 22.621 15.6022 22.8316 15.945 23.0844C15.8593 22.6631 16.2021 22.4525 16.2449 21.947ZM3.51958 18.9561C3.73381 18.6613 3.94804 18.3243 4.16227 17.9451C3.04827 18.3664 3.00542 18.4085 3.51958 18.9561ZM19.7583 8.13008C19.6726 8.04583 19.6298 8.0037 19.5441 7.91945C19.287 7.96158 19.0728 8.0037 18.8157 8.04583C18.6443 8.04583 18.5158 8.08795 18.5158 8.29858C18.5158 8.42495 18.4729 8.59345 18.6443 8.71982C18.8585 8.8462 18.9014 8.63558 18.9871 8.59345C19.287 8.42495 19.5441 8.29858 19.7583 8.13008Z" fill="#ECEDF5"/>
<path d="M6.86159 9.01427C6.99013 8.3824 7.3329 7.79265 7.8899 7.20291C8.5326 6.52891 9.21814 6.36041 10.0322 6.40254C10.7178 6.44466 11.1462 6.90803 11.4033 7.45565C11.6604 7.96115 11.4461 8.3824 11.1462 8.84577C10.6321 9.60402 9.90367 10.0674 9.13244 10.4886C7.8899 11.1205 6.81875 10.5308 6.86159 9.01427ZM9.38952 6.86591C9.04675 6.86591 8.57544 6.90803 8.66114 7.07653C8.96106 7.75053 8.31836 7.7084 8.06129 7.8769C7.46144 8.2139 7.37575 8.80365 7.37575 9.35127C7.3329 10.2359 7.9756 10.615 8.78967 10.1938C9.30383 9.89889 9.81798 9.56189 10.2893 9.18277C10.9748 8.59302 11.1462 7.91903 10.6749 7.41353C10.3321 6.99228 9.81798 6.90803 9.38952 6.86591Z" fill="#ECEDF5"/>
<path d="M12.7744 15.2494C13.2885 15.0388 13.717 14.8703 13.6313 14.3227C13.6313 14.1963 13.5884 14.0699 13.7598 14.0278C13.9741 13.9857 14.1026 14.112 14.2311 14.2384C14.3597 14.3648 14.4882 14.4912 14.3168 14.6175C13.8884 14.9967 13.5456 15.5022 13.0314 15.797C12.5601 16.0077 11.9174 15.5864 11.9603 15.0809C12.0031 14.8703 12.0888 14.6175 12.4316 14.6175C12.9457 14.5754 12.8601 14.8282 12.7744 15.2494Z" fill="#ECEDF5"/>
</svg>
