<svg width="97" height="40" viewBox="0 0 97 40" fill="none" xmlns="http://www.w3.org/2000/svg">
<path d="M83.8312 17.3948C82.1915 17.7719 77.8612 17.9814 77.8612 17.9814L77.3286 19.6855C77.3286 19.6855 79.4728 19.5039 81.0424 19.6575C81.0424 19.6575 81.5469 19.6156 81.6029 20.2162C81.631 20.8308 81.5609 21.4733 81.5609 21.4733C81.5609 21.4733 81.5189 21.8504 81.0003 21.9482C80.3977 22.0459 76.3336 22.2275 76.3336 22.2275L75.675 24.4343C75.675 24.4343 75.4367 24.9372 75.9833 24.7975C76.4878 24.6578 80.7481 23.8477 81.3087 23.9595C81.8972 24.0991 82.5699 24.9092 82.3737 25.6355C82.1495 26.5155 77.8892 29.2251 75.3106 29.0436C75.3106 29.0436 73.9512 29.1274 72.8161 27.2976C71.723 25.5517 73.1945 22.2694 73.1945 22.2694C73.1945 22.2694 72.5358 20.733 73.0263 20.1743C73.0263 20.1743 73.3066 19.9369 74.1474 19.867L75.1985 17.7161C75.1985 17.7161 74.0073 17.7859 73.3066 16.9199C72.6619 16.0819 72.6059 15.7187 73.1104 15.4953C73.6429 15.2159 78.5759 14.336 81.9673 14.4477C81.9673 14.4477 83.1585 14.308 84.2096 16.3612C84.2096 16.3612 84.686 17.1993 83.8452 17.3948H83.8312ZM71.0503 25.6635C70.6299 26.6831 69.4667 27.7586 68.0653 27.1021C66.6359 26.4317 64.3796 21.8504 64.3796 21.8504C64.3796 21.8504 63.5388 20.1464 63.3706 20.2022C63.3706 20.2022 63.1884 19.867 63.0903 21.7386C62.9502 23.5963 63.1184 27.2138 62.3476 27.7865C61.6469 28.3452 60.806 28.1077 60.3296 27.4513C59.9372 26.7948 59.769 25.2165 59.9932 22.4649C60.2455 19.7134 60.8761 16.7803 61.6749 15.8724C62.5158 14.9505 63.1884 15.621 63.4407 15.8724C63.4407 15.8724 64.5198 16.8501 66.3416 19.7413L66.6499 20.2721C66.6499 20.2721 68.3036 23.0236 68.4717 23.0097C68.4717 23.0097 68.6119 23.1493 68.724 23.0376C68.8922 22.9957 68.8361 22.1018 68.8361 22.1018C68.8361 22.1018 68.5278 19.1268 66.9863 14.0985C66.9863 14.0985 66.762 13.456 66.9162 12.8415C67.0563 12.2828 67.6589 12.5621 67.6589 12.5621C67.6589 12.5621 69.9853 13.6795 71.1204 17.4507C72.2415 21.2219 71.4848 24.6438 71.0643 25.6635H71.0503ZM59.6429 15.9841C59.4186 16.3752 59.3205 16.9199 58.3536 17.0736C58.3536 17.0736 48.9641 17.73 48.5017 18.3865C48.5017 18.3865 48.1934 18.7776 48.6979 18.8753C49.2304 18.9871 51.3605 19.2664 52.3696 19.3223C53.4627 19.3223 57.1343 19.3502 58.4797 20.9984C58.4797 20.9984 59.2505 21.7805 59.2224 23.5544C59.1944 25.3701 58.8721 26.0126 58.1574 26.6691C57.4146 27.2837 51.0522 30.133 46.9461 25.7752C46.9461 25.7752 45.0682 23.6801 47.6048 22.0878C47.6048 22.0878 49.4266 20.9704 54.0933 22.2694C54.0933 22.2694 55.4947 22.7722 55.4386 23.289C55.3546 23.8477 54.2755 24.4064 52.7059 24.3785C51.1924 24.3366 50.0712 23.6103 50.2955 23.736C50.5057 23.8058 48.6558 22.8421 48.0812 23.4985C47.5207 24.1131 47.6608 24.4762 48.2214 24.8534C49.6228 25.6635 55.1303 25.3701 56.77 23.5404C56.77 23.5404 57.4286 22.8002 56.4336 22.1996C55.4527 21.6409 52.5938 21.2917 51.4867 21.2498C50.4356 21.1939 46.4976 21.2498 45.9091 20.2302C45.9091 20.2302 45.3485 19.5039 45.9651 17.5205C46.6098 15.4254 51.1924 14.6153 53.1824 14.4477C53.1824 14.4477 58.6479 14.2242 59.6709 15.3416C59.6709 15.3416 59.811 15.593 59.6429 15.9701V15.9841ZM44.1433 28.2614C43.4846 28.7502 42.0832 28.5407 41.6768 27.982C41.2844 27.4932 41.1443 25.5657 41.2143 22.5348C41.3124 19.434 41.3545 15.6349 42.0552 15.0204C42.7559 14.4198 43.1763 14.9505 43.4566 15.3556C43.7369 15.7746 44.1012 16.2355 44.1573 17.1993C44.2414 18.177 44.4796 23.2052 44.4796 23.2052C44.4796 23.2052 44.7879 27.7865 44.1573 28.2614H44.1433ZM45.5447 11.9196C43.6107 12.5761 42.2934 12.3666 41.1723 11.8777C40.6818 12.7577 40.3875 13.023 40.0231 13.0789C39.4626 13.1348 38.9721 12.2409 38.902 11.9615C38.7899 11.752 38.5236 11.3749 38.846 10.5229C37.7529 9.54518 37.6688 8.23226 37.865 7.35232C38.1172 6.31873 39.9671 2.43582 45.5727 1.9749C45.5727 1.9749 48.3195 1.77936 48.796 3.23196H48.88C48.88 3.23196 51.5427 3.23196 51.4867 5.6064C51.4867 7.98084 48.5437 10.9419 45.5447 11.9615V11.9196ZM48.0392 5.15945C46.2734 5.43879 43.5547 7.7853 42.2514 9.72676C44.2554 10.0899 47.7589 9.95024 49.3285 6.79362C49.3285 6.79362 50.0712 4.81026 48.0392 5.15945ZM40.2894 6.69585C39.7288 7.60373 39.7008 8.14845 39.9671 8.5116C40.6257 7.53389 41.7889 5.99749 43.5407 4.7963C42.1953 4.93597 41.0602 5.49466 40.2894 6.69585ZM88.0354 28.1636C86.7461 31.3202 85.653 34.5187 85.0224 39.3095C85.0224 39.3095 84.8822 40.2453 84.1115 39.9381C83.3407 39.6587 82.0794 38.4017 81.7991 36.6278C81.5189 34.3092 82.5559 30.3984 84.672 25.9009C84.0554 24.9232 83.621 23.4706 83.9713 21.4314C83.9713 21.4314 84.5319 17.6602 88.3157 14.2522C88.3157 14.2522 88.7642 13.8751 89.0164 14.0008C89.3247 14.1404 89.1986 15.3416 88.9463 15.9562C88.7221 16.5428 87.0404 19.448 87.0404 19.448C87.0404 19.448 85.9894 21.4314 86.2837 22.9817C88.2737 19.9369 92.8002 13.7633 95.603 15.7187C97.3828 16.9758 97.3828 21.0263 96.0515 23.3728C95.0004 25.2305 92.0294 29.0715 88.0634 28.1776L88.0354 28.1636ZM93.8933 18.6798C92.8563 19.7972 91.0064 21.9202 89.5489 24.7975C91.0905 24.6299 92.59 23.7779 93.0525 23.3449C93.7952 22.6884 95.5049 20.9146 95.2387 18.5681C95.2387 18.5681 95.0705 17.3389 93.8933 18.6798ZM31.1102 29.8118C26.1492 31.3202 21.4685 30.6219 18.9179 29.9514C18.8478 30.985 18.7357 31.418 18.5676 31.5856C18.3714 31.8091 16.7457 32.7309 15.8488 31.418C15.4564 30.7895 15.2602 29.6581 15.1481 28.6245C9.40234 26.0266 6.73967 22.1996 6.65558 22.0599C6.51544 21.9202 5.21213 20.5654 6.51544 18.8893C7.73467 17.3808 11.7707 15.8584 15.3864 15.2578C15.5265 12.185 15.8628 9.81056 16.2973 8.76301C16.8158 7.50596 17.4745 8.62334 18.0631 9.46138C18.5395 10.0899 18.8338 12.7856 18.8619 14.9366C21.2162 14.8248 22.6457 14.9924 25.2663 15.4953C28.7138 16.0819 31.0121 17.8418 30.8299 19.8251C30.6617 21.7806 28.8679 22.5907 28.1672 22.6465C27.4665 22.7024 26.3454 22.1856 26.3454 22.1856C25.5606 21.8225 26.2753 21.4872 27.1862 21.0962C28.1952 20.6073 27.971 20.1184 27.971 20.1184C27.6066 19.0011 23.1362 18.2608 18.6937 18.2608C18.6937 20.7051 18.7918 24.7556 18.8619 27.1161C21.973 27.7027 24.2993 27.577 24.2993 27.577C24.2993 27.577 35.6507 27.2557 35.9731 20.0346C36.3234 12.7996 24.6216 5.87178 16.003 3.69288C7.39833 1.44414 2.52142 3.03642 2.101 3.24593C1.63854 3.4694 2.05896 3.55321 2.05896 3.55321C2.05896 3.55321 2.52142 3.62304 3.36227 3.90239C4.20312 4.18174 3.53044 4.60075 3.53044 4.60075C2.05896 5.10358 0.419311 4.81026 0.0969867 4.13983C-0.225337 3.48337 0.307198 2.88278 0.937832 2.00283C1.52642 1.09496 2.1991 1.12289 2.1991 1.12289C12.8498 -2.57844 25.8549 4.05603 25.8549 4.05603C38.0191 10.1737 40.0932 17.3669 39.869 20.1603C39.6728 22.9119 38.6077 27.563 31.1102 29.8257V29.8118ZM7.70664 19.8251C6.50143 20.3838 7.34227 21.2777 7.34227 21.2777C9.61256 23.6941 12.3873 25.2165 15.05 26.1663C15.3583 21.9761 15.3303 20.4816 15.3303 18.3725C11.2102 18.6519 8.82777 19.3223 7.70664 19.8251Z" fill="#888DF2"/>
</svg>
